<?xml version="1.0" standalone="no"?>
<!DOCTYPE svg PUBLIC "-//W3C//DTD SVG 20010904//EN"
 "http://www.w3.org/TR/2001/REC-SVG-20010904/DTD/svg10.dtd">
<svg version="1.0" xmlns="http://www.w3.org/2000/svg"
 width="914.000000pt" height="900.000000pt" viewBox="0 0 914.000000 900.000000"
 preserveAspectRatio="xMidYMid meet">
<metadata>
Created by potrace 1.15, written by Peter Selinger 2001-2017
</metadata>
<g transform="translate(0.000000,900.000000) scale(0.100000,-0.100000)"
fill="#000000" stroke="none">
<path d="M8630 8960 c0 -34 -3 -40 -22 -40 -20 0 -21 -1 -3 -20 10 -11 22 -20
27 -20 4 0 8 9 8 20 0 11 5 20 10 20 6 0 10 6 10 13 0 7 6 22 14 32 12 17 15
17 29 4 12 -12 14 -31 10 -82 l-6 -67 86 0 86 0 3 42 3 42 38 -33 c34 -30 37
-31 37 -12 0 18 6 21 39 21 22 0 41 5 43 10 3 11 68 -30 68 -42 0 -5 -16 -8
-35 -8 -19 0 -35 -4 -35 -10 0 -5 -18 -10 -40 -10 -29 0 -40 -4 -40 -15 0 -11
11 -15 40 -15 36 0 40 -3 40 -24 0 -23 3 -24 35 -19 34 5 48 -8 25 -22 -12 -7
-4 -25 11 -25 5 0 9 27 9 60 0 33 4 60 10 60 6 0 10 37 10 90 l0 90 -171 0
c-157 0 -170 -1 -167 -17 3 -13 13 -18 40 -18 36 0 36 -1 20 -20 -9 -11 -18
-22 -20 -24 -1 -3 -9 5 -18 17 -8 12 -21 22 -28 22 -17 0 -31 -33 -17 -38 6
-2 11 -21 11 -43 0 -38 -1 -39 -35 -39 -34 0 -35 1 -35 39 0 22 5 41 10 43 6
2 13 20 17 41 l6 37 -62 0 -61 0 0 -40z"/>
<path d="M2996 7650 c-16 -5 -33 -7 -37 -4 -4 2 -10 0 -14 -6 -4 -6 -10 -8
-15 -5 -5 3 -30 -3 -57 -14 -26 -10 -67 -22 -90 -26 -24 -4 -43 -11 -43 -16 0
-5 -9 -9 -19 -9 -21 0 -75 -85 -65 -101 3 -5 -2 -12 -10 -15 -11 -4 -14 -16
-11 -40 5 -39 -5 -48 -37 -35 -13 5 -36 12 -51 16 -15 3 -25 9 -23 14 3 5 -2
15 -11 22 -15 12 -16 12 -10 -4 5 -13 3 -16 -5 -11 -17 11 -154 13 -170 2 -10
-7 -9 -12 6 -23 11 -8 16 -15 10 -16 -5 0 2 -5 16 -11 l25 -10 -35 -12 c-19
-7 -34 -17 -32 -24 1 -7 -5 -12 -13 -12 -8 0 -15 -8 -15 -17 1 -25 23 -105 34
-122 5 -8 10 -64 10 -125 1 -61 5 -117 9 -123 6 -9 3 -11 -10 -6 -10 3 -4 -5
12 -18 32 -25 49 -47 50 -64 0 -5 7 -10 15 -10 11 0 15 -11 13 -46 -2 -46 -2
-47 22 -35 14 6 23 16 21 23 -3 7 1 10 10 6 7 -3 14 0 14 6 0 6 -4 11 -10 11
-20 0 -9 15 23 31 17 9 32 21 32 27 0 6 11 19 23 28 15 11 22 23 19 35 -3 12
5 28 21 44 80 73 118 105 130 105 6 0 12 5 12 10 0 6 5 10 11 10 6 0 8 -7 5
-16 -5 -13 -2 -15 11 -9 83 35 175 66 208 71 61 8 139 26 150 34 12 8 115 6
165 -4 19 -3 29 -4 23 0 -20 9 -15 21 11 26 26 5 66 -17 44 -24 -7 -3 34 -3
92 -1 73 2 100 0 90 -7 -12 -8 -11 -10 6 -10 12 0 29 -11 38 -25 16 -24 66
-59 52 -36 -10 15 1 14 28 -4 13 -9 38 -20 55 -25 26 -7 31 -6 32 8 0 15 1 15
7 -1 14 -33 92 -61 107 -37 3 6 15 6 30 0 17 -6 25 -5 29 5 4 11 10 11 30 2
14 -7 26 -15 26 -19 0 -5 6 -8 14 -8 7 0 43 -15 78 -34 36 -19 74 -36 84 -38
24 -4 25 -33 2 -32 -10 1 -18 -3 -18 -10 0 -7 -3 -7 -8 -1 -4 6 -16 17 -26 25
-18 14 -19 13 -13 -2 3 -10 2 -18 -3 -18 -6 0 -10 5 -10 11 0 5 -4 7 -10 4 -5
-3 -10 -2 -10 4 0 6 -7 7 -17 4 -11 -4 -14 -3 -9 5 4 7 2 12 -3 12 -6 0 -14 0
-18 0 -5 1 -10 -20 -13 -45 -5 -37 -3 -46 11 -50 27 -9 78 -66 72 -81 -3 -8
-2 -22 3 -31 6 -15 8 -12 13 12 4 18 13 31 25 33 11 2 16 0 12 -6 -3 -6 -2
-13 3 -16 14 -9 2 -42 -25 -67 -24 -22 -24 -22 -24 -1 0 11 -4 24 -10 27 -5 3
-10 16 -10 27 0 30 -30 50 -48 31 -11 -11 -17 -11 -29 -1 -12 10 -18 9 -29 -7
-13 -17 -16 -18 -24 -5 -7 11 -10 3 -10 -28 0 -29 5 -44 15 -48 9 -4 15 -19
15 -35 0 -20 5 -29 16 -29 8 0 13 -4 10 -9 -3 -5 1 -11 9 -15 8 -3 15 -13 15
-23 0 -15 -2 -15 -15 3 -8 10 -15 14 -15 8 0 -6 11 -21 25 -34 13 -12 24 -25
23 -29 -2 -12 14 -61 21 -61 3 0 7 -14 7 -32 1 -27 0 -29 -11 -15 -17 23 -39
23 -27 0 13 -24 34 -154 27 -161 -3 -3 -5 5 -5 17 0 14 -4 20 -12 15 -6 -4 -8
-3 -5 3 9 15 -3 73 -16 73 -5 0 -7 -14 -4 -35 4 -25 2 -33 -5 -29 -8 5 -9 1
-4 -12 9 -24 18 -84 10 -66 -4 10 -9 10 -20 2 -19 -17 -34 -3 -33 28 2 24 2
24 6 5 2 -13 8 -23 13 -23 14 0 20 31 10 50 -6 10 -10 40 -10 66 0 38 -3 44
-13 35 -8 -6 -17 -8 -20 -4 -4 3 -7 -1 -7 -10 0 -11 5 -14 18 -10 14 5 15 4 6
-8 -18 -23 -26 -103 -13 -132 10 -21 15 -24 30 -16 16 8 19 6 20 -13 0 -22 1
-22 9 -3 7 15 9 10 9 -22 1 -24 5 -43 11 -43 5 0 7 6 4 14 -3 8 2 26 11 40 9
14 14 30 10 36 -3 5 1 18 11 27 15 16 16 14 10 -28 -4 -27 -3 -37 3 -24 6 16
9 10 15 -29 7 -46 46 -127 46 -96 0 8 7 2 15 -14 8 -15 15 -40 14 -55 0 -24
-1 -24 -10 -6 -7 15 -8 10 -5 -20 l4 -40 -11 38 c-6 20 -14 37 -19 37 -5 0 -6
-5 -2 -12 4 -7 3 -8 -4 -4 -6 4 -21 2 -32 -4 -15 -8 -20 -8 -20 2 0 10 -2 10
-9 -1 -7 -11 -13 -8 -27 14 -17 26 -18 27 -26 6 -12 -34 -28 -24 -28 17 0 27
3 33 10 22 8 -12 10 -11 9 5 -1 11 -5 31 -9 45 l-8 25 -1 -27 c-1 -39 -11 -58
-29 -58 -13 0 -12 -3 4 -15 36 -27 -4 -15 -117 36 -159 72 -370 160 -396 166
-13 3 -23 9 -23 14 0 5 -5 9 -12 9 -6 0 -63 25 -127 56 -152 73 -265 104 -411
111 -104 5 -121 3 -166 -16 -49 -21 -52 -21 -99 -6 -44 15 -101 55 -79 55 24
0 -85 60 -128 70 -27 7 -53 20 -58 30 -7 13 -17 16 -32 12 -19 -4 -21 -3 -13
9 7 11 6 11 -5 -1 -12 -12 -41 -15 -140 -16 -148 -1 -176 -9 -182 -56 -3 -18
0 -42 7 -53 8 -12 15 -74 18 -155 7 -159 11 -182 40 -235 16 -29 36 -47 74
-65 l51 -25 -19 -25 c-11 -14 -31 -47 -46 -75 l-25 -50 23 20 c32 27 66 45 84
45 8 0 26 18 39 39 36 57 324 341 346 341 21 0 53 -28 45 -39 -14 -23 48 -267
81 -318 8 -12 14 -36 14 -53 0 -17 11 -48 25 -70 14 -22 25 -43 25 -48 0 -12
47 -51 54 -45 3 4 6 -1 6 -10 0 -9 5 -17 11 -17 6 0 9 6 6 14 -16 40 45 43
177 10 57 -15 59 -15 95 9 20 13 45 41 56 63 17 32 29 40 70 52 28 7 70 20 95
28 146 46 373 58 513 27 42 -9 77 -21 77 -25 0 -5 12 -5 27 -2 26 7 27 6 10
-10 -9 -9 -23 -14 -29 -11 -7 4 -4 -2 8 -12 27 -23 40 -58 19 -49 -28 10 -15
-9 15 -22 17 -8 30 -19 30 -26 0 -6 9 -12 20 -13 11 -1 20 2 20 8 0 5 9 9 19
9 22 0 35 30 27 63 -3 12 -3 16 0 9 8 -17 24 -5 24 19 0 12 7 19 20 19 11 0
20 -6 20 -12 0 -8 3 -9 8 -3 11 16 205 3 226 -15 32 -26 56 -87 55 -137 -1
-26 -4 -38 -6 -25 -6 30 -29 58 -71 84 -48 30 -136 20 -196 -22 -24 -16 -46
-36 -49 -45 -8 -18 4 -20 22 -2 11 10 12 7 6 -13 -10 -33 -12 -35 -30 -20 -13
11 -15 9 -15 -12 0 -13 5 -29 11 -35 8 -8 9 -20 1 -42 -9 -25 -8 -31 2 -31 8
0 17 -12 21 -27 3 -16 18 -40 33 -55 34 -36 74 -37 97 -2 22 34 8 70 -57 141
-26 29 -48 60 -48 68 0 17 16 20 25 5 3 -5 35 -10 71 -10 61 0 65 -1 75 -27
30 -76 53 -83 76 -23 9 22 20 37 25 32 8 -8 -16 -105 -31 -127 -4 -5 -18 -37
-31 -70 -28 -72 -109 -193 -148 -222 -15 -11 -55 -33 -87 -48 -72 -33 -168
-37 -210 -9 -26 17 -27 16 -67 -22 -26 -26 -37 -31 -29 -17 9 19 8 24 -8 33
-33 17 -51 12 -51 -14 0 -14 -5 -28 -11 -32 -8 -4 -9 0 -4 15 9 30 -6 26 -43
-12 -23 -24 -31 -39 -26 -53 5 -16 4 -16 -5 -4 -7 9 -14 11 -18 5 -5 -5 -17
-17 -27 -25 -18 -13 -19 -13 -14 1 5 14 3 15 -18 5 -26 -12 -34 -29 -9 -20 8
4 15 1 15 -5 0 -6 -16 -11 -35 -11 -19 0 -35 -5 -35 -11 0 -8 -5 -7 -15 1 -13
11 -18 10 -31 -8 -8 -12 -23 -22 -32 -22 -12 0 -13 3 -5 8 16 10 29 72 16 72
-6 0 -18 -9 -28 -20 -10 -11 -13 -20 -7 -20 7 0 12 5 12 12 0 6 3 8 7 5 3 -4
-6 -18 -20 -31 -27 -25 -40 -25 -30 0 6 16 -9 18 -55 5 -20 -6 -32 -6 -32 0 0
19 -31 21 -51 3 -18 -16 -19 -16 -13 -1 9 25 -9 21 -30 -7 -15 -21 -21 -23
-37 -13 -15 9 -21 9 -28 -1 -4 -7 -15 -10 -24 -6 -15 5 -15 8 -2 21 20 19 19
37 -1 29 -9 -3 -18 -6 -20 -6 -2 0 -4 -9 -4 -20 0 -15 -7 -20 -25 -20 -19 0
-25 5 -25 21 0 11 -4 18 -10 14 -5 -3 -3 6 5 21 12 25 12 28 -8 45 -16 13 -27
15 -41 7 -13 -7 -21 -6 -27 3 -6 11 -9 10 -15 -4 -3 -9 -12 -17 -20 -17 -8 0
-14 -4 -14 -10 0 -5 -7 -10 -15 -10 -8 0 -15 -4 -15 -10 0 -5 7 -10 16 -10 11
0 14 -5 9 -17 -4 -10 -10 -36 -13 -58 -5 -36 -4 -39 11 -27 14 12 17 9 22 -22
4 -19 4 -39 1 -45 -4 -5 -1 -13 5 -17 9 -5 10 6 7 41 -4 29 -2 42 3 34 5 -8 9
-26 9 -40 0 -15 6 -32 14 -38 19 -16 9 -48 -24 -71 -24 -17 -29 -18 -40 -5
-16 19 -50 19 -50 0 0 -10 -8 -14 -22 -11 -19 2 -22 9 -20 32 2 24 1 26 -8 12
-6 -9 -17 -15 -24 -12 -7 3 -17 -3 -21 -13 -7 -15 -9 -13 -15 12 l-7 30 -11
-27 c-10 -25 -14 -27 -37 -18 -36 14 -36 13 -31 -15 3 -14 0 -25 -5 -25 -5 0
-9 6 -9 13 0 7 -7 22 -15 33 -13 18 -14 18 -8 -5 5 -18 3 -22 -7 -16 -7 4 -16
2 -22 -6 -7 -10 -8 -6 -5 14 3 22 1 27 -10 23 -8 -3 -16 -6 -19 -6 -2 0 -1 -8
3 -17 4 -13 0 -11 -15 6 l-22 24 -9 -24 c-7 -18 -10 -19 -10 -6 -1 20 -21 23
-21 3 0 -9 -7 -12 -21 -9 -15 4 -20 12 -16 29 4 21 1 23 -19 18 -13 -4 -24 -2
-24 2 0 8 -21 13 -76 17 -13 1 -19 7 -17 15 3 6 0 12 -6 12 -6 0 -17 14 -26
30 -9 17 -22 30 -30 30 -22 0 -63 43 -66 70 -6 39 47 60 136 53 39 -3 73 -10
76 -16 4 -5 9 -4 14 3 4 6 14 9 22 5 10 -3 22 3 31 16 12 17 16 18 24 8 7 -11
11 -11 15 -1 2 6 11 12 19 12 8 0 11 6 7 16 -4 10 1 22 11 30 10 7 15 17 11
23 -3 6 0 9 8 5 8 -3 20 2 27 11 8 9 8 15 2 15 -6 0 -13 -4 -16 -9 -6 -8 -137
18 -146 30 -3 3 -21 9 -41 13 -20 3 -45 17 -56 30 -11 13 -37 26 -57 30 -20 4
-36 11 -36 16 0 6 -7 10 -15 10 -12 0 -14 8 -10 32 4 18 7 34 9 35 2 2 61 -2
132 -8 71 -6 142 -11 158 -10 17 0 61 -11 99 -24 52 -19 88 -25 154 -25 76 0
85 -2 90 -20 3 -11 9 -20 14 -20 5 0 9 -7 9 -15 0 -19 70 -21 70 -2 0 7 7 4
15 -7 14 -18 20 -12 16 16 0 4 6 5 14 2 10 -4 15 0 15 11 0 9 7 23 15 31 17
18 20 34 5 34 -5 0 -10 17 -9 38 0 30 2 33 9 17 7 -16 9 -16 9 -4 1 22 -21 64
-51 97 -13 15 -23 33 -20 40 2 7 -1 12 -6 12 -5 0 -17 16 -26 35 -9 19 -21 35
-26 35 -6 0 -10 7 -10 16 0 14 -13 33 -61 92 -18 23 -29 12 -31 -30 0 -24 -1
-47 0 -53 2 -23 67 -183 88 -217 14 -22 20 -40 14 -43 -6 -3 -10 -1 -10 6 0 9
-4 8 -15 -1 -31 -26 -224 6 -419 71 -49 16 -103 29 -119 29 -28 0 -87 28 -87
41 0 18 38 34 83 34 48 0 50 1 54 30 2 17 8 34 12 38 4 4 38 3 74 -4 63 -12
67 -11 108 14 65 38 133 107 119 121 -8 8 -15 7 -23 -4 -17 -22 -81 -15 -130
14 -109 65 -121 69 -193 71 -57 2 -81 8 -118 30 -26 15 -50 34 -53 42 -4 11
-10 9 -29 -8 -14 -14 -31 -20 -44 -16 -11 3 -23 1 -26 -5 -3 -5 -12 -7 -19 -4
-19 7 -30 -43 -30 -138 l0 -79 -160 4 c-88 1 -259 3 -380 3 -133 1 -228 5
-240 11 -11 6 -42 9 -70 7 -27 -2 -88 -5 -135 -7 -47 -1 -98 -7 -113 -12 -19
-5 -63 -4 -125 6 -54 7 -135 14 -182 15 -61 1 -94 6 -118 19 -30 16 -36 17
-50 4 -10 -8 -23 -12 -30 -10 -7 3 -19 -3 -27 -13 -17 -24 -47 -9 -55 27 -5
22 -12 24 -65 27 -33 2 -65 8 -72 14 -19 15 -92 18 -117 5 -11 -7 -26 -19 -33
-27 -28 -35 -70 32 -54 88 5 16 4 37 -3 52 -9 20 -12 -22 -14 -189 -1 -125 1
-217 7 -220 5 -3 12 -23 16 -43 4 -21 11 -36 15 -33 5 3 13 -3 19 -12 7 -12
10 -13 11 -4 0 10 3 11 13 2 11 -8 17 -5 27 17 7 15 16 34 20 42 8 17 101 24
111 8 4 -6 14 -5 28 3 16 10 25 11 39 3 12 -8 22 -8 34 0 9 5 21 7 25 2 4 -4
8 -60 8 -124 l0 -115 -52 -4 -53 -3 0 40 c0 22 -4 40 -10 40 -5 0 -10 -25 -10
-56 0 -30 -4 -53 -8 -50 -4 2 -14 1 -21 -3 -10 -7 -8 -13 10 -29 19 -18 20
-22 7 -27 -9 -4 -18 -15 -21 -25 -4 -15 -16 -18 -71 -19 -52 -1 -66 2 -66 14
0 8 5 15 10 15 7 0 7 6 1 18 -6 10 -7 28 -4 40 3 13 1 22 -6 22 -8 0 -9 6 -3
18 5 9 12 34 16 55 4 20 11 37 16 37 18 0 10 30 -7 31 -28 3 -65 0 -70 -5 -2
-2 -5 -36 -5 -76 -1 -50 -5 -73 -15 -77 -9 -4 -13 -26 -13 -78 l0 -73 263 5
262 5 22 24 c17 19 23 21 23 9 0 -8 10 -19 23 -24 12 -5 160 -9 327 -10 168 0
342 -2 388 -3 56 -2 82 1 82 8 0 7 6 14 14 17 8 3 16 18 19 34 3 20 4 15 6
-16 l1 -43 35 4 c19 2 35 1 35 -2 0 -4 6 -8 13 -9 11 -2 192 -8 292 -10 22 -1
35 -5 28 -9 -6 -4 50 -6 125 -4 79 2 139 7 143 13 3 6 7 -29 8 -77 0 -48 6
-92 11 -99 5 -6 11 -22 13 -34 2 -12 13 -28 24 -34 12 -7 45 -28 74 -48 93
-62 112 -73 184 -110 l70 -35 48 -109 c49 -109 84 -167 130 -216 14 -14 32
-40 41 -57 16 -30 15 -32 -1 -33 -10 -1 -25 0 -32 1 -13 1 -13 -1 -1 -15 8
-10 23 -15 37 -12 34 6 39 -11 12 -40 -28 -29 -66 -53 -54 -33 5 9 1 10 -14 5
-11 -3 -34 -7 -51 -7 -16 -1 -30 -5 -30 -10 0 -8 19 -12 48 -11 9 1 6 -6 -7
-18 -12 -11 -21 -26 -21 -33 0 -21 -277 -17 -290 4 -14 21 -12 30 4 30 9 0 12
7 9 20 -6 23 -14 25 -31 8 -8 -8 -15 -8 -27 2 -10 8 -38 13 -73 12 -31 -2 -64
2 -72 8 -12 8 -9 9 11 5 17 -4 30 -1 39 9 11 14 8 18 -19 27 -17 6 -31 14 -31
17 0 4 36 7 79 7 73 0 114 11 83 22 -7 3 -19 11 -26 19 -8 8 -24 14 -35 14
-12 0 -21 5 -21 10 0 6 15 10 34 10 18 0 48 6 66 13 l32 14 -29 11 c-45 17
-127 21 -141 6 -12 -14 -102 -17 -102 -4 0 4 25 13 55 20 35 9 55 18 55 28 0
9 7 13 20 9 11 -3 18 -1 14 4 -3 5 -16 9 -29 9 -13 0 -27 5 -30 10 -7 11 39
32 63 28 8 -2 17 3 20 11 3 10 0 12 -13 7 -18 -6 -45 9 -45 25 0 5 10 9 22 9
46 0 0 21 -51 24 -55 3 -83 18 -64 37 7 7 22 7 51 0 52 -14 210 -17 242 -4 21
9 11 12 -65 23 -56 8 -95 19 -102 28 -9 11 -27 15 -59 13 -40 -2 -46 0 -40 15
4 11 2 15 -8 11 -8 -3 -16 2 -19 13 -3 14 -14 18 -41 17 -30 -1 -35 -4 -30
-19 4 -15 0 -18 -25 -18 -21 0 -31 5 -31 15 0 8 -4 15 -10 15 -5 0 -10 -7 -10
-15 0 -8 -4 -15 -10 -15 -5 0 -10 -5 -10 -11 0 -6 9 -8 20 -4 28 9 148 10 157
2 3 -4 -10 -22 -31 -39 -45 -39 -41 -61 12 -74 20 -5 35 -13 33 -19 -3 -5 8
-13 25 -16 19 -4 7 -6 -35 -7 -55 -1 -64 2 -68 19 -4 14 -11 18 -22 13 -37
-15 -49 -15 -64 1 -9 9 -22 13 -27 10 -12 -8 66 -85 85 -85 7 0 15 -10 18 -22
8 -29 -25 -64 -64 -70 -24 -4 -28 -2 -24 13 8 23 -63 37 -94 17 -18 -11 -23
-11 -30 0 -6 10 -23 12 -68 7 -56 -7 -60 -6 -76 19 -30 45 -65 25 -51 -30 5
-20 2 -24 -15 -24 -12 0 -21 6 -21 15 0 8 -9 15 -20 15 -11 0 -20 -4 -20 -10
0 -5 -16 -10 -36 -10 -22 0 -33 -4 -29 -10 4 -7 24 -8 50 -4 37 5 45 3 57 -15
8 -14 23 -21 42 -21 l30 0 -33 -34 c-26 -27 -29 -34 -17 -39 36 -14 13 -23
-33 -13 -35 7 -52 16 -59 31 -7 15 -19 22 -41 22 -17 0 -31 -4 -31 -9 0 -4 4
-8 8 -8 5 0 14 -11 20 -24 7 -17 25 -29 51 -36 22 -6 43 -15 46 -20 13 -20 50
-10 63 17 6 15 12 31 12 35 0 5 12 20 28 33 24 21 29 22 44 8 21 -19 45 -8 27
13 -6 8 -18 14 -25 14 -8 0 -14 7 -14 15 0 18 5 19 30 3 16 -10 23 -9 46 12
18 17 28 21 31 13 6 -16 43 -17 43 -3 0 6 6 5 14 -2 18 -17 11 -28 -12 -21
-10 2 -24 -3 -31 -11 -8 -9 -25 -16 -38 -16 -23 0 -29 -24 -7 -26 5 0 17 -4
28 -9 13 -6 21 -3 28 8 12 22 35 21 81 -3 20 -11 51 -20 68 -20 38 0 30 -16
-11 -22 -22 -3 -30 0 -30 10 0 11 -8 13 -31 8 -17 -3 -35 -6 -39 -6 -5 0 -3
-11 3 -25 9 -19 20 -25 45 -25 21 0 31 -4 27 -10 -4 -6 -1 -18 6 -26 6 -8 10
-16 8 -19 -8 -7 -93 18 -107 32 -8 7 -18 11 -23 8 -16 -11 -10 -32 14 -43 18
-9 19 -11 4 -11 -20 -1 -35 -14 -56 -50 -11 -21 -11 -25 3 -33 9 -5 14 -13 11
-18 -3 -4 3 -6 13 -3 9 2 31 -3 47 -11 17 -9 24 -16 16 -16 -8 0 -23 -8 -34
-17 -18 -17 -19 -17 -28 0 -6 9 -17 17 -24 17 -9 0 -15 10 -15 25 0 16 -6 25
-15 25 -9 0 -26 10 -38 23 -20 19 -30 21 -82 17 -44 -4 -54 -8 -40 -14 11 -4
30 -12 43 -17 13 -5 22 -17 22 -30 0 -19 -4 -21 -37 -15 -21 3 -62 9 -92 11
-47 5 -52 4 -41 -10 7 -8 21 -15 31 -15 10 0 23 -9 29 -20 7 -14 21 -20 43
-20 18 0 39 -5 47 -11 12 -9 11 -10 -5 -6 -22 4 -52 -20 -40 -31 4 -4 10 -1
12 6 6 16 45 15 68 -2 18 -13 16 -15 -25 -24 -45 -10 -45 -10 -14 -17 27 -6
30 -10 26 -36 -3 -20 -11 -31 -27 -35 -54 -13 -102 17 -54 34 15 6 18 11 11
16 -7 4 -10 11 -7 16 3 4 -4 6 -15 3 -23 -6 -26 9 -5 27 17 14 11 30 -11 30
-8 0 -14 -9 -14 -20 0 -13 -7 -20 -20 -20 -11 0 -20 -5 -20 -10 0 -6 6 -10 13
-9 25 3 37 -1 37 -15 0 -17 -31 -31 -39 -17 -3 5 -17 11 -31 12 -14 2 -29 14
-35 27 -6 13 -19 22 -32 22 -12 0 -28 8 -35 18 -33 47 -128 31 -128 -20 0 -27
0 -27 -58 -22 -71 7 -83 9 -102 17 -20 9 -47 4 -62 -11 -7 -7 -20 -12 -30 -12
-20 0 -24 -15 -6 -26 6 -4 17 1 24 10 7 10 17 15 23 11 6 -3 11 -1 11 6 0 9 3
9 14 -1 8 -6 13 -17 10 -23 -2 -7 9 -18 26 -24 16 -6 30 -7 30 -2 0 5 -5 9
-11 9 -6 0 -9 6 -6 13 2 7 22 12 50 12 29 0 42 -4 36 -10 -14 -14 -11 -28 6
-22 19 8 31 -13 14 -24 -7 -4 -10 -11 -6 -16 5 -4 16 3 26 16 17 22 89 42 76
21 -3 -6 0 -11 7 -11 7 -1 18 -2 23 -4 6 -1 21 -3 35 -4 l25 -3 -25 -7 c-18
-5 -24 -14 -23 -29 3 -20 -2 -22 -51 -22 -47 0 -56 -3 -61 -21 -5 -15 -13 -19
-27 -15 -14 3 -18 2 -11 -5 6 -6 26 -7 48 -3 22 4 32 10 25 14 -9 5 -9 9 -1
14 18 11 27 0 26 -36 l0 -33 -64 -5 c-51 -4 -65 -9 -67 -22 -1 -11 4 -18 14
-18 10 0 27 -3 40 -6 16 -5 22 -2 22 10 0 18 39 22 68 7 9 -6 29 -12 45 -16
29 -6 38 -27 10 -24 -33 3 -43 -1 -43 -17 0 -11 6 -15 20 -11 17 4 18 2 9 -14
-5 -10 -19 -19 -29 -19 -11 0 -20 -5 -20 -11 0 -6 9 -9 20 -6 13 3 20 0 20
-10 0 -9 -6 -12 -18 -9 -11 4 -27 -2 -41 -15 -12 -11 -29 -18 -37 -15 -8 3
-26 -1 -39 -10 -36 -23 -58 -12 -45 22 8 19 7 31 0 38 -8 8 -12 4 -16 -11 -4
-12 -19 -27 -38 -33 l-31 -12 50 -15 c40 -12 57 -13 88 -3 35 10 40 9 58 -11
10 -12 19 -29 18 -38 0 -10 -3 -8 -9 7 -10 24 -32 37 -52 29 -8 -3 -2 -9 14
-16 33 -12 36 -27 8 -36 -11 -3 -20 -13 -20 -21 0 -8 -15 -16 -40 -20 -67 -11
-61 -25 10 -26 3 -1 17 2 33 6 20 5 27 3 27 -9 0 -10 -10 -15 -27 -15 -16 0
-41 -7 -57 -15 -33 -18 -73 -8 -112 27 -21 19 -21 19 -34 -11 -10 -25 -17 -30
-35 -25 -13 3 -26 0 -30 -6 -6 -9 -9 -9 -16 1 -6 10 -15 9 -43 -6 -19 -11 -38
-16 -42 -12 -4 4 -2 7 4 7 7 0 12 7 12 15 0 19 -3 19 -85 0 -52 -12 -79 -14
-122 -6 -30 6 -59 8 -64 5 -15 -9 1 -24 26 -24 13 0 26 -4 30 -10 3 -5 12 -7
20 -4 7 3 18 -4 25 -16 6 -12 17 -19 24 -17 15 6 69 -27 60 -36 -4 -3 10 -2
30 4 27 7 42 6 63 -4 25 -14 25 -15 7 -24 -34 -18 -115 -22 -121 -7 -3 8 -12
14 -20 14 -9 0 -13 -6 -10 -14 5 -12 -8 -14 -73 -11 -43 2 -83 6 -89 10 -15 9
-31 -3 -25 -19 4 -9 21 -13 57 -11 29 2 57 -1 64 -7 7 -6 19 -5 32 4 17 10 25
10 41 0 15 -9 26 -10 41 -1 12 6 38 9 59 7 21 -2 36 0 34 4 -3 5 1 8 9 8 13 0
47 30 47 43 0 3 -8 8 -17 10 -19 5 6 8 84 11 33 2 43 -2 47 -17 2 -10 9 -16
14 -13 5 3 28 8 52 11 24 3 48 9 54 13 9 7 43 8 94 3 7 0 11 -5 8 -10 -9 -13
22 -22 52 -14 30 7 54 27 45 37 -4 3 1 6 11 6 10 0 14 -5 10 -11 -5 -9 5 -10
37 -5 42 6 44 5 45 -19 2 -19 -2 -25 -15 -22 -9 2 -15 9 -14 15 4 16 -14 15
-20 0 -3 -10 -7 -10 -20 1 -14 11 -20 11 -32 1 -8 -7 -15 -19 -15 -27 0 -12 3
-13 13 -4 10 8 19 7 33 -4 17 -12 8 -14 -80 -13 -86 1 -97 3 -81 14 23 17 19
21 -27 25 -24 2 -43 -2 -56 -14 -10 -9 -26 -17 -34 -17 -9 0 -19 -10 -22 -22
-6 -21 -7 -21 -16 -6 -8 13 -20 15 -53 12 -71 -9 -75 -10 -91 -23 -19 -16
-234 -21 -240 -6 -3 7 -7 6 -13 -1 -12 -15 -143 -10 -154 7 -5 8 -9 9 -9 3 0
-9 -41 -34 -57 -34 -3 0 -3 10 0 21 5 20 3 21 -33 15 -22 -3 -41 -2 -45 4 -8
12 39 32 59 24 8 -3 17 -1 20 5 4 6 13 8 21 4 8 -3 15 0 15 6 0 8 -19 10 -62
7 -75 -5 -101 -14 -94 -31 2 -7 -4 -15 -15 -18 -10 -3 -17 -1 -14 3 8 13 -23
26 -77 34 -59 9 -67 20 -28 38 16 7 30 20 30 29 0 29 24 39 74 33 25 -4 46
-10 46 -13 0 -4 -14 -15 -30 -24 -17 -10 -30 -13 -30 -8 0 6 -7 11 -16 11 -9
0 -14 -6 -11 -12 2 -7 16 -12 31 -11 14 1 26 -3 26 -8 0 -6 8 -6 20 1 11 6 20
17 20 25 0 17 40 29 75 23 37 -7 31 17 -7 33 -17 7 -48 12 -67 10 -20 -1 -43
-2 -51 -1 -169 11 -194 15 -170 30 8 6 25 10 38 10 13 0 22 6 22 15 0 8 17 22
38 31 29 12 44 13 73 5 20 -6 44 -11 53 -11 26 0 18 25 -12 38 l-27 11 30 -1
c78 -3 164 31 120 48 -25 10 -208 -4 -215 -16 -10 -16 -92 -13 -119 4 -9 6
-12 5 -8 -1 4 -6 -6 -10 -22 -11 -28 -1 -29 0 -19 34 11 40 3 58 -23 51 -11
-3 -19 -1 -19 4 0 5 7 9 15 9 8 0 15 7 15 15 0 8 -7 15 -15 15 -8 0 -15 5 -15
10 0 6 9 10 20 10 11 0 20 -4 20 -10 0 -5 7 -10 15 -10 19 0 56 -40 48 -53 -3
-5 -9 -3 -15 4 -7 11 -8 9 -5 -6 2 -12 9 -18 18 -16 8 3 33 5 56 5 47 1 55 6
57 38 1 17 9 24 31 28 27 6 28 7 9 13 -35 12 -109 10 -133 -3 -25 -13 -56 -6
-45 11 4 8 9 7 15 -2 7 -11 9 -10 9 4 0 9 -5 17 -11 17 -8 0 -7 5 2 16 11 14
10 18 -6 31 -11 7 -29 12 -40 9 -11 -3 -30 -6 -41 -6 -13 0 -24 -8 -27 -20 -3
-12 -14 -20 -25 -20 -17 0 -20 -5 -16 -32 2 -18 12 -39 21 -46 16 -12 16 -13
-5 -18 -34 -9 -28 -34 9 -34 38 0 35 -24 -4 -28 -30 -4 -35 -25 -12 -48 9 -9
23 -12 38 -8 15 3 28 1 32 -7 5 -7 4 -10 -3 -5 -6 3 -13 2 -17 -4 -3 -5 -19
-10 -36 -10 -25 0 -29 -4 -29 -29 0 -16 6 -32 13 -35 9 -5 9 -7 0 -12 -7 -3
-13 -18 -13 -34 l0 -27 60 4 c33 3 60 1 59 -4 -4 -25 3 -35 21 -30 11 3 20 1
20 -4 0 -5 -13 -9 -29 -9 -31 0 -59 -24 -42 -35 6 -3 26 -3 44 0 24 5 37 2 46
-9 8 -9 24 -16 37 -16 13 0 24 -4 24 -9 0 -5 9 -7 20 -4 16 4 19 2 14 -11 -10
-25 -43 -40 -50 -22 -3 8 -17 17 -30 20 -14 4 -22 11 -19 16 6 10 -33 25 -42
16 -4 -3 -1 -6 5 -6 22 0 12 -18 -13 -24 -16 -4 -34 -1 -48 9 -32 23 -77 20
-77 -5 0 -11 6 -20 13 -20 9 0 9 -2 0 -8 -18 -11 -13 -102 4 -95 7 3 13 0 13
-7 0 -10 3 -10 15 0 12 10 18 10 30 0 11 -9 18 -10 29 -1 7 6 24 11 37 11 13
0 35 1 48 1 13 0 25 -2 28 -5 10 -10 -9 -26 -30 -26 -12 0 -35 -8 -52 -17 -16
-9 -52 -19 -80 -22 -45 -5 -50 -9 -53 -33 -3 -24 1 -28 38 -38 23 -6 49 -20
58 -31 22 -25 30 -24 58 6 15 16 34 25 54 25 17 0 40 5 51 10 30 17 139 14
192 -6 40 -14 61 -15 115 -8 65 9 100 34 47 34 -15 0 -24 4 -20 10 3 6 26 10
50 10 24 0 56 5 71 10 30 12 164 3 164 -11 0 -4 -17 -11 -38 -15 -20 -4 -40
-11 -43 -15 -3 -5 -18 -10 -35 -12 -16 -2 -39 -9 -51 -16 -19 -9 -22 -9 -17 2
3 8 -2 17 -11 21 -21 8 -36 -1 -29 -18 5 -13 -42 -40 -56 -31 -13 8 -41 -6
-33 -18 4 -6 1 -7 -6 -2 -7 4 -24 1 -38 -6 -19 -10 -28 -10 -43 -1 -11 7 -28
12 -38 12 -10 0 -22 4 -28 9 -5 5 -32 11 -60 14 -29 2 -57 7 -62 11 -14 8 -62
-3 -62 -15 0 -5 6 -9 13 -9 8 0 32 -13 53 -28 22 -16 51 -31 64 -34 14 -3 39
-11 55 -16 96 -33 106 -34 118 -19 7 8 24 17 39 21 15 3 34 13 42 21 20 20
153 18 149 -2 -2 -7 2 -13 7 -13 6 0 10 5 10 10 0 6 8 10 19 10 10 0 21 9 24
20 4 16 14 20 47 20 23 0 50 -5 61 -11 16 -8 26 -7 44 5 32 21 38 20 25 -3
-13 -26 2 -36 31 -20 12 6 56 17 98 25 42 7 108 20 146 27 73 14 162 12 182
-5 15 -12 68 -14 116 -4 23 5 37 5 37 -2 0 -5 -21 -13 -46 -17 -44 -6 -45 -7
-30 -28 33 -46 61 -126 77 -217 4 -25 15 -76 23 -115 8 -40 11 -74 6 -79 -10
-10 -241 45 -286 69 -16 8 -38 15 -50 15 -11 0 -54 9 -95 20 -41 11 -134 36
-208 55 -73 20 -148 42 -167 50 -18 7 -54 17 -79 21 -36 5 -48 12 -55 30 -11
28 -18 29 -45 10 -17 -11 -28 -11 -70 0 -27 8 -107 28 -177 45 -89 22 -128 35
-128 45 0 18 -45 36 -90 36 -57 -1 -134 8 -149 17 -11 7 -10 13 3 34 12 17 14
27 6 32 -16 10 -42 -16 -37 -37 3 -10 1 -18 -4 -18 -6 0 -8 -45 -7 -106 l3
-106 113 -29 c102 -25 162 -47 105 -37 -12 1 -22 0 -23 -4 -1 -24 2 -28 20
-28 11 0 20 5 20 11 0 6 9 8 20 4 11 -4 20 -2 20 4 0 11 27 4 48 -12 7 -5 29
-11 50 -13 20 -2 48 -6 61 -9 21 -5 22 -8 10 -20 -16 -17 -180 -21 -351 -9
l-98 6 0 -118 0 -119 68 -23 c194 -65 201 -66 256 -55 71 15 116 35 94 40 -31
7 -21 33 12 33 22 0 28 4 24 15 -5 11 1 15 22 14 16 0 23 -3 17 -6 -21 -8 -15
-22 7 -16 22 6 28 -12 8 -20 -7 -3 -1 -6 14 -6 15 -1 31 -7 35 -14 4 -7 45
-28 91 -46 45 -19 86 -38 90 -45 4 -6 9 9 12 34 l5 45 40 -1 c22 -1 65 -9 95
-19 61 -18 174 -16 206 4 17 11 17 12 1 7 -26 -8 -41 2 -27 19 8 9 6 14 -5 19
-12 4 -14 10 -5 25 5 11 10 30 9 43 0 21 -2 20 -12 -7 -7 -17 -21 -31 -32 -33
-53 -8 -385 -8 -377 0 5 5 67 18 137 28 70 11 137 22 148 26 12 4 36 8 52 10
17 1 47 5 68 8 28 4 39 2 43 -9 4 -8 10 -12 16 -9 5 3 42 -2 81 -11 173 -41
207 -49 292 -72 185 -49 210 -57 221 -65 7 -5 10 -30 7 -61 -11 -167 -28 -293
-49 -372 -32 -124 -58 -383 -51 -515 4 -58 2 -132 -3 -165 -6 -33 -12 -94 -16
-135 -3 -42 -9 -82 -13 -89 -6 -9 -24 -5 -77 20 -38 17 -105 44 -149 59 -104
35 -319 119 -690 268 -165 67 -382 152 -482 190 l-183 69 0 -102 0 -103 63
-25 c125 -49 393 -158 412 -167 11 -5 58 -25 105 -44 283 -114 386 -159 396
-171 6 -8 20 -15 30 -15 15 0 158 -56 319 -124 17 -7 74 -31 128 -52 l99 -39
-6 -63 c-3 -34 -9 -91 -12 -127 l-7 -65 2093 0 c1151 0 2091 2 2089 4 -2 2
-33 5 -69 7 -36 1 -71 7 -79 13 -8 6 -17 9 -20 6 -3 -3 -7 4 -9 15 -2 16 3 20
28 21 16 1 30 -2 30 -5 0 -4 17 -8 38 -9 20 -2 51 -5 67 -7 17 -3 56 -8 88
-11 38 -5 57 -11 57 -20 0 -22 935 -20 987 1 46 19 53 19 54 -2 0 -14 2 -14 9
4 5 12 18 24 30 28 12 4 30 21 41 38 10 18 19 28 19 22 0 -15 -40 -78 -59 -92
-13 -10 212 -12 1102 -13 l1117 0 0 1041 c0 980 -1 1043 -17 1055 -17 13 -17
13 0 14 16 0 17 71 17 1344 l0 1344 -22 6 -23 7 22 11 c22 11 22 12 23 310 0
249 -2 301 -14 313 -8 8 -19 15 -24 15 -6 0 -20 16 -32 35 -25 40 -35 43 -50
15 -7 -14 -21 -20 -45 -20 -29 0 -34 4 -40 31 -5 23 -9 28 -16 18 -5 -8 -9
-24 -9 -37 0 -12 -7 -25 -15 -29 -22 -8 -55 25 -55 55 0 20 -4 24 -25 20 -13
-3 -26 0 -28 6 -2 6 -9 -13 -16 -41 -7 -29 -16 -53 -20 -53 -3 0 -15 16 -25
35 -11 20 -23 32 -28 27 -4 -4 -11 -42 -16 -83 -6 -67 -9 -74 -30 -77 -12 -2
-27 -12 -32 -23 -6 -10 -16 -19 -23 -19 -17 1 -63 41 -70 63 -10 27 -81 20
-154 -15 -12 -6 -29 -8 -37 -5 -24 9 -46 -3 -57 -29 -5 -14 -17 -24 -28 -24
-10 0 -24 -7 -31 -15 -14 -16 -80 -21 -95 -6 -16 15 -85 25 -85 12 0 -6 -6
-11 -14 -11 -8 0 -16 -6 -19 -12 -3 -10 -13 -11 -45 -2 -31 8 -42 8 -42 0 0
-6 -5 -4 -10 4 -14 21 -12 30 4 30 18 0 30 30 16 44 -16 16 -12 36 9 36 11 0
23 5 26 10 3 6 -3 10 -13 10 -32 0 -42 22 -36 77 4 30 2 53 -4 57 -6 4 -13
-21 -17 -65 -4 -38 -9 -68 -11 -66 -9 8 -11 107 -3 107 5 0 9 5 9 11 0 5 -5 7
-11 4 -7 -5 -9 11 -7 47 2 30 -1 54 -7 55 -6 1 -9 -24 -8 -65 1 -37 -1 -57 -4
-44 -2 12 -9 22 -14 22 -6 0 -10 15 -9 33 1 17 1 43 0 57 -1 24 -2 24 -10 4
-16 -39 -15 -127 0 -132 8 -3 18 -10 22 -16 11 -16 10 -76 -1 -76 -5 0 -8 16
-7 35 3 27 0 35 -14 35 -12 0 -17 -9 -18 -35 -1 -20 -4 -40 -7 -45 -3 -5 -1
-12 5 -15 6 -4 10 -21 8 -38 -3 -27 0 -31 21 -32 13 0 26 -7 28 -15 4 -13 3
-13 -6 0 -9 13 -11 12 -11 -3 0 -10 -4 -15 -10 -12 -5 3 -26 8 -47 10 -64 8
-68 9 -93 33 -41 38 -66 39 -100 3 -32 -33 -60 -41 -60 -17 0 29 -54 34 -83 9
-12 -11 -17 -12 -12 -4 7 12 -3 13 -56 8 -92 -8 -231 9 -247 31 -14 19 -58 21
-185 7 -64 -6 -81 -5 -88 6 -8 12 -10 12 -19 -1 -14 -22 -42 -1 -52 38 -5 17
-13 34 -19 37 -14 9 -39 -14 -39 -36 0 -26 -12 -30 -52 -17 -29 8 -47 7 -91
-7 -31 -9 -58 -24 -61 -31 -3 -8 -12 -14 -21 -14 -8 0 -15 -4 -15 -10 0 -15
-72 -42 -97 -35 -12 3 -35 17 -52 31 -28 24 -35 25 -113 20 -46 -2 -84 -9 -86
-15 -2 -6 -14 -8 -27 -5 -15 4 -29 -1 -41 -14 -17 -18 -25 -19 -67 -11 -27 5
-53 11 -58 15 -17 10 -128 19 -181 14 -14 -2 -81 5 -170 16 -45 5 -58 11 -63
28 l-6 21 -9 -21 c-12 -31 -27 -37 -39 -17 -10 17 -10 17 -11 -2 0 -29 -27
-41 -95 -43 -33 -1 -73 -7 -89 -14 -25 -10 -31 -9 -42 6 -12 17 -14 17 -41 -2
-42 -30 -82 -37 -89 -15 -24 72 -54 107 -54 63 0 -11 -4 -20 -10 -20 -5 0 -10
-11 -10 -24 0 -22 -4 -23 -82 -29 -66 -4 -84 -2 -93 10 -13 17 -135 32 -135
16 0 -5 -6 -10 -12 -11 -7 -1 -30 -5 -52 -8 -25 -4 -37 -3 -32 4 7 12 -39 25
-63 17 -10 -3 -48 2 -85 10 -69 16 -83 14 -109 -20 -4 -5 -5 3 -1 19 6 27 45
93 62 106 15 11 82 150 82 169 0 12 5 21 10 21 6 0 10 6 10 14 0 18 99 166
111 166 5 0 9 9 9 20 0 21 16 55 38 79 21 22 33 60 42 136 5 39 12 81 15 95 5
19 4 22 -4 10 -9 -12 -11 -11 -11 8 0 12 6 22 14 22 12 0 13 12 9 63 -4 34 -6
76 -7 94 0 18 -3 30 -6 28 -4 -2 -6 22 -6 54 0 36 -5 65 -13 75 -8 9 -11 19
-8 22 3 3 -1 22 -10 41 -12 29 -12 45 -3 83 9 39 8 58 -6 111 -9 35 -18 71
-18 79 -1 9 -14 29 -29 46 -15 17 -33 39 -40 48 -7 10 -25 19 -40 19 -30 2
-33 7 -15 25 8 8 4 9 -18 3 -25 -6 -33 -3 -67 33 -22 23 -36 33 -33 22 5 -13
2 -17 -9 -12 -8 3 -15 0 -15 -6 0 -6 -11 -1 -24 11 -16 15 -25 18 -28 10 -3
-9 -11 -7 -31 6 -21 13 -27 14 -27 4 -1 -9 -4 -8 -11 4 -6 9 -14 15 -20 12 -5
-4 -9 -2 -9 3 0 5 -9 12 -21 15 -13 4 -18 10 -13 18 4 7 3 10 -4 5 -6 -3 -38
16 -71 44 -51 42 -59 46 -51 26 14 -37 -14 -23 -46 23 -21 29 -24 31 -19 11
l8 -25 -22 19 c-22 20 -22 20 -16 0 5 -13 -1 -10 -19 11 -21 24 -26 26 -26 12
0 -17 -2 -17 -29 2 -20 15 -31 17 -33 9 -5 -15 -62 10 -98 44 -13 13 -28 22
-32 20 -5 -1 -8 3 -8 9 0 5 -4 7 -10 4 -5 -3 -10 1 -10 9 0 8 -4 18 -10 21 -6
3 -7 -1 -4 -9 3 -9 1 -16 -5 -16 -6 0 -11 5 -11 10 0 6 -11 15 -25 22 -13 6
-28 24 -34 39 -5 16 -16 29 -23 29 -10 0 -10 -2 1 -9 19 -12 5 -31 -19 -26
-11 2 -20 -1 -20 -7 0 -7 -4 -7 -14 1 -7 6 -20 9 -28 6 -29 -11 -113 54 -94
72 3 3 19 -2 35 -10 35 -17 35 -18 21 19 l-11 27 28 -18 c16 -10 39 -27 52
-39 16 -14 25 -17 28 -9 2 7 11 9 19 6 10 -3 14 2 14 18 l0 24 20 -25 c11 -14
20 -21 20 -17 0 4 9 3 20 -3 10 -6 18 -16 16 -23 -1 -6 -1 -9 1 -4 3 4 18 -3
35 -14 18 -13 33 -18 37 -12 7 12 67 -20 64 -34 -1 -5 7 -9 17 -9 10 0 16 4
14 8 -3 4 -1 8 4 8 6 0 13 -8 16 -17 6 -14 9 -15 15 -4 6 9 -2 23 -25 44 -19
16 -33 32 -30 34 2 2 17 -8 32 -23 16 -14 38 -30 49 -35 17 -6 17 -8 3 -8 -10
-1 -18 -4 -18 -9 0 -12 41 -44 48 -37 4 3 0 10 -8 15 -13 8 -12 12 3 27 10 10
17 14 16 8 -4 -22 1 -36 11 -30 6 3 10 -1 10 -10 0 -9 6 -15 13 -13 15 4 99
-61 93 -71 -5 -7 45 -59 73 -75 9 -6 8 -1 -3 16 -9 14 -13 28 -9 32 4 4 0 4
-8 1 -9 -3 -22 2 -30 11 -12 15 -12 16 9 10 16 -5 24 -3 28 8 8 21 24 21 24 0
0 -8 4 -13 8 -10 4 2 19 -5 32 -16 14 -11 18 -16 10 -12 -8 3 -5 -4 7 -16 17
-18 25 -21 36 -12 10 9 17 9 27 -1 8 -6 6 -2 -4 11 -26 31 -8 28 26 -5 27 -26
40 -21 16 7 -7 8 4 2 24 -13 52 -38 55 -34 12 18 -20 25 -41 45 -47 45 -5 0
-31 13 -57 29 -54 33 -126 58 -138 47 -4 -4 1 -13 11 -20 27 -20 20 -29 -8
-10 -30 19 -34 5 -5 -16 11 -8 20 -18 20 -22 0 -16 -18 -7 -51 26 -42 42 -136
106 -156 106 -9 0 -13 8 -11 21 3 19 -6 24 -62 40 -50 14 -66 16 -72 6 -6 -9
-8 -9 -8 1 0 6 -8 12 -17 13 -15 0 -15 2 2 8 25 11 83 4 137 -15 46 -16 62
-12 26 7 -59 32 -188 43 -188 17 0 -6 -7 -4 -17 3 -9 8 -18 13 -19 12 -8 -5
-34 10 -29 16 2 4 -6 7 -18 6 -12 -1 -33 6 -47 16 -33 24 -126 60 -134 52 -3
-4 -6 -1 -6 6 0 7 -4 10 -9 7 -5 -3 -29 5 -53 19 -23 13 -63 27 -88 31 -25 4
-54 11 -65 17 -53 28 -242 45 -299 27z m150 -236 c-3 10 -1 25 6 33 10 13 16
10 40 -19 18 -21 26 -26 21 -13 -6 19 -6 19 14 3 11 -10 26 -18 34 -17 10 0
10 2 2 6 -7 2 -13 8 -13 12 0 11 51 1 69 -13 11 -8 13 -8 7 2 -9 15 8 16 34 2
16 -8 18 -8 14 5 -4 8 -10 15 -15 15 -5 0 -9 7 -9 15 0 13 4 14 21 4 16 -8 23
-8 28 0 5 7 15 3 31 -14 13 -14 20 -25 16 -25 -4 0 2 -10 14 -22 11 -12 20
-25 20 -30 0 -13 -30 -9 -31 5 0 8 -2 8 -5 1 -3 -8 -16 -8 -45 0 -33 8 -42 8
-49 -4 -7 -12 -16 -12 -50 -4 -22 6 -43 8 -45 4 -12 -19 -125 17 -125 40 0 6
-6 10 -13 10 -18 0 -43 29 -49 57 -4 16 6 10 40 -25 24 -26 42 -39 38 -28z
m225 -1314 c9 0 22 -7 29 -15 18 -21 32 -19 25 5 -3 11 -4 20 -2 20 11 0 92
-31 149 -58 35 -16 74 -32 86 -36 44 -14 15 -16 -81 -6 -91 9 -100 8 -142 -12
-42 -21 -48 -21 -72 -8 -15 8 -25 19 -24 25 1 5 -7 12 -18 17 -25 9 -27 30 -5
64 12 17 20 22 27 15 6 -6 19 -11 28 -11z m-2890 -631 c24 -1 54 1 66 4 13 3
25 2 28 -3 3 -4 29 -6 57 -4 29 2 98 -1 152 -7 83 -8 103 -14 121 -33 11 -12
50 -34 85 -49 63 -25 64 -26 28 -27 -20 0 -40 5 -43 10 -4 6 -12 7 -18 3 -7
-4 -112 -9 -233 -10 l-222 -3 -7 22 c-6 20 -8 20 -12 6 -5 -19 -11 -21 -58
-18 -36 2 -145 51 -145 65 0 6 9 21 19 33 15 21 20 22 32 10 8 -8 24 -17 37
-20 17 -5 22 -2 22 12 0 21 20 31 36 19 6 -5 30 -9 55 -10z m849 -140 c0 -24
20 -25 21 -1 1 16 2 16 6 -1 3 -12 11 -16 23 -12 10 3 21 2 24 -3 3 -5 31 -10
63 -11 66 -3 67 -3 59 -28 -5 -14 -17 -18 -62 -20 -88 -2 -91 -18 -4 -28 64
-7 71 -11 63 -30 -4 -11 -21 -15 -63 -15 -57 0 -59 -1 -62 -27 -2 -16 -10 -29
-18 -29 -8 -1 -25 -2 -37 -3 -25 -1 -28 -8 -14 -30 6 -10 25 -14 59 -12 32 1
53 -4 61 -13 16 -20 0 -27 -45 -22 -21 3 -44 1 -53 -3 -9 -5 -34 -6 -56 -2
-31 5 -40 11 -41 26 -2 54 -37 90 -47 48 -3 -15 -6 -13 -15 8 -6 15 -17 29
-24 32 -8 3 -6 6 5 6 15 1 18 8 16 35 -4 44 8 58 16 20 11 -47 14 -54 25 -54
5 0 10 18 10 41 0 36 2 40 22 37 25 -3 38 26 19 45 -9 9 -13 6 -17 -11 -8 -29
-21 -28 -26 2 -4 21 -1 25 21 28 33 4 29 24 -5 21 -13 -1 -24 4 -24 10 0 8 19
13 50 14 43 1 50 -2 50 -18z m-521 -11 c143 -1 266 -5 272 -8 11 -7 14 -183 4
-200 -3 -5 -18 -5 -33 -1 -15 4 -64 6 -109 5 -61 -2 -85 1 -94 12 -9 11 -9 17
1 29 17 20 4 38 -20 25 -14 -7 -23 -6 -35 6 -15 15 -17 15 -36 -2 -15 -13 -22
-15 -31 -6 -16 16 -38 15 -38 -1 0 -8 9 -22 20 -32 20 -19 20 -19 -11 -32 -28
-12 -33 -11 -45 4 -13 17 -15 17 -29 -2 -13 -16 -19 -18 -35 -7 -11 7 -30 10
-43 7 -13 -4 -35 -2 -49 4 -19 7 -28 7 -32 -2 -2 -7 -5 -2 -5 9 -1 14 5 21 15
20 9 0 21 7 28 17 9 15 7 21 -7 31 -15 12 -15 15 -2 26 20 16 19 47 -2 58 -22
13 -10 39 19 44 13 2 26 3 29 1 4 -1 124 -4 268 -5z m3589 -52 c6 1 13 2 15 3
2 2 90 4 127 2 19 -1 21 -4 12 -13 -7 -7 -12 -22 -12 -35 0 -13 -5 -23 -11
-23 -5 0 -8 4 -5 8 2 4 1 14 -5 22 -7 13 -9 12 -9 -1 0 -20 -27 -33 -36 -17
-4 6 -15 0 -28 -16 -15 -19 -34 -28 -68 -32 -43 -6 -47 -5 -45 15 1 11 5 21 9
21 4 0 7 3 7 8 -1 4 0 10 1 15 1 4 3 10 5 15 7 25 19 42 24 35 3 -5 12 -8 19
-7z m140 -131 c-2 -8 0 -14 5 -14 29 -3 37 1 37 19 0 26 30 26 37 1 3 -11 15
-22 26 -25 21 -6 21 -7 4 -20 -19 -15 -13 -46 9 -46 25 0 28 -30 5 -51 -17
-16 -25 -18 -41 -9 -12 6 -29 8 -39 5 -23 -7 -38 33 -15 42 26 10 14 23 -21
23 -27 0 -35 -4 -35 -17 -1 -16 -2 -16 -12 1 -6 11 -7 21 -2 23 32 11 37 21
21 37 -8 9 -27 16 -41 16 -14 0 -28 5 -31 10 -4 6 10 10 34 10 23 0 41 5 41
11 0 5 5 7 10 4 6 -4 9 -13 8 -20z m1069 -45 c3 -11 12 -20 21 -20 13 0 13 -3
4 -12 -10 -10 -6 -15 20 -24 18 -6 33 -17 33 -25 0 -18 -58 -28 -170 -28 -109
0 -167 9 -173 28 -3 9 2 11 17 6 12 -4 28 -2 36 5 8 7 15 7 19 1 8 -12 156
-10 156 1 0 5 -6 8 -12 8 -9 0 -8 4 2 10 11 7 0 10 -37 10 -43 0 -51 -3 -47
-15 4 -10 0 -15 -11 -15 -11 0 -15 5 -11 15 5 13 -5 20 -26 16 -5 0 -8 3 -8 8
0 5 16 12 36 16 20 3 45 12 57 18 15 10 21 9 25 -2 4 -11 6 -11 13 0 8 12 11
11 19 -1 8 -13 10 -12 10 3 0 24 21 22 27 -3z m-1378 -37 c-1 -5 -1 -10 1 -13
6 -17 6 -91 -1 -125 -27 -140 -31 -175 -20 -175 6 0 11 6 12 13 0 10 2 10 6 0
2 -7 9 -13 14 -13 6 0 7 5 4 11 -4 6 0 16 10 22 17 13 24 71 11 100 -5 10 -4
17 3 17 6 0 11 -9 11 -21 0 -15 4 -19 16 -15 12 4 15 2 10 -9 -4 -11 -1 -13
12 -6 9 5 28 14 42 19 25 11 25 11 -7 13 -54 3 -56 3 -60 17 -3 8 9 12 40 12
55 0 84 -24 78 -62 0 -5 6 -8 14 -8 8 0 14 6 12 13 -1 6 6 11 16 9 23 -4 22 6
-5 33 -34 35 -48 53 -48 65 0 16 47 12 54 -5 3 -8 12 -12 20 -9 8 3 12 12 9
20 -4 12 6 14 65 9 65 -5 140 -23 101 -24 -15 -1 -17 -14 -10 -53 0 -5 10 -8
21 -8 10 0 31 -5 45 -12 21 -9 28 -9 38 4 13 17 57 31 57 18 0 -15 49 -17 82
-3 25 11 55 13 123 8 49 -4 97 -11 106 -15 9 -5 20 -5 25 -1 5 5 28 12 50 16
36 5 44 3 57 -14 15 -23 107 -40 107 -21 0 6 -9 10 -20 10 -11 0 -20 7 -20 16
0 11 6 14 23 8 12 -4 32 -7 45 -6 14 1 22 -4 22 -14 0 -14 16 -16 135 -12 74
2 135 0 135 -5 0 -4 8 -3 18 2 10 5 47 6 91 1 78 -8 101 -5 101 13 0 7 4 7 12
-1 7 -7 20 -12 29 -12 10 0 20 -6 22 -12 4 -9 8 -10 14 -2 5 6 51 10 118 10
130 -1 134 -1 127 26 -4 16 -1 19 14 16 10 -2 18 -11 18 -20 -1 -14 12 -16 98
-16 90 0 101 2 105 19 4 14 11 17 32 13 47 -10 51 -13 51 -36 l0 -22 20 22
c12 12 26 22 33 21 9 0 9 -2 0 -6 -34 -13 -4 -21 85 -20 53 0 108 -1 122 -1
63 -5 230 3 230 10 0 4 -8 9 -17 9 -10 1 -25 3 -33 4 -8 1 -32 3 -52 4 -21 0
-38 6 -38 11 0 6 3 9 8 9 21 -4 42 2 42 12 0 6 -24 10 -62 9 -35 -1 -81 3
-103 8 l-40 10 45 3 c128 8 336 3 347 -8 10 -9 10 -12 0 -16 -23 -8 60 -24
104 -20 79 8 68 22 -19 25 -40 1 -63 6 -66 15 -6 14 73 17 414 18 152 1 156 0
210 -28 45 -24 62 -28 99 -23 24 3 50 11 56 16 27 23 397 12 556 -15 48 -8 94
-13 102 -9 8 3 18 0 22 -6 6 -9 10 -9 16 1 6 11 11 11 21 1 21 -21 27 -14 22
26 l-5 37 20 -24 c23 -25 27 -41 11 -41 -5 0 -10 -7 -10 -16 0 -14 3 -14 16
-4 13 11 16 10 21 -9 5 -21 6 -21 25 -4 19 17 20 17 33 0 10 -13 14 -15 18 -5
2 7 7 10 11 6 4 -3 2 -16 -4 -28 -10 -18 -9 -24 1 -31 8 -5 21 -7 29 -5 8 2
27 7 43 10 15 4 27 13 27 22 0 11 4 12 19 4 11 -5 29 -10 40 -10 13 0 21 -6
21 -16 0 -14 -7 -15 -40 -10 -25 4 -40 2 -40 -4 0 -5 6 -10 13 -10 6 0 20 -7
31 -15 17 -13 17 -18 6 -45 -12 -29 -14 -30 -31 -14 -11 10 -19 25 -19 36 0
12 -7 18 -22 17 -13 0 -17 -3 -10 -6 21 -8 13 -20 -18 -26 -42 -9 -37 -24 9
-32 31 -5 38 -10 34 -22 -4 -11 -2 -14 5 -9 8 5 12 0 12 -13 0 -18 -7 -21 -52
-22 -29 -1 -66 -4 -83 -8 -19 -5 -38 -2 -52 7 -20 12 -25 11 -45 -8 -22 -20
-22 -22 -5 -34 9 -7 17 -21 17 -30 0 -12 5 -16 19 -11 10 3 29 1 42 -4 13 -5
18 -11 12 -12 -7 -1 -17 -2 -22 -3 -22 -3 -22 -16 0 -16 14 0 30 -5 35 -10 7
-7 22 -6 47 5 46 19 68 19 42 -1 -11 -8 -28 -21 -37 -29 -10 -8 -20 -10 -23
-5 -11 18 -27 10 -22 -10 7 -27 -23 -43 -55 -31 -16 7 -18 10 -6 10 23 1 31
17 20 37 -6 11 -11 13 -16 5 -4 -6 -2 -11 3 -11 6 0 11 -4 11 -9 0 -5 -22 -12
-50 -16 -27 -4 -52 -11 -55 -16 -3 -4 -12 -6 -20 -2 -27 10 -16 -5 20 -27 34
-21 73 -21 60 0 -3 5 3 10 14 10 12 0 21 -7 21 -15 0 -18 -8 -21 -73 -30 -64
-8 -51 -19 26 -22 56 -3 83 -15 71 -35 -5 -8 -40 -3 -74 9 -16 6 -92 4 -99 -3
-8 -7 9 -17 31 -19 42 -3 30 -23 -14 -22 -75 0 -88 -3 -88 -18 0 -8 5 -15 10
-15 6 0 10 -7 10 -15 0 -15 28 -21 78 -16 13 1 21 -2 18 -7 -9 -14 21 -23 51
-16 18 5 24 4 19 -5 -4 -7 2 -14 15 -19 19 -8 20 -9 5 -15 -10 -4 -15 -11 -11
-17 3 -5 -16 -12 -44 -16 -28 -4 -48 -10 -46 -15 8 -12 -9 -19 -25 -9 -9 5
-19 5 -27 -1 -8 -8 -28 -7 -62 0 -51 11 -81 7 -81 -11 0 -5 15 -8 33 -6 39 4
48 -12 16 -30 -23 -13 -22 -13 13 -9 43 6 51 1 36 -23 -10 -15 -22 -17 -76
-13 -51 4 -63 2 -60 -9 3 -7 15 -14 28 -14 13 -1 26 -7 28 -13 2 -6 8 -9 12
-6 5 3 19 -4 30 -15 11 -11 25 -18 31 -14 5 3 17 3 27 -1 14 -5 14 -7 2 -16
-11 -7 -8 -9 15 -7 17 1 35 6 42 11 6 4 14 4 18 -2 3 -6 -7 -13 -22 -17 -15
-4 -31 -11 -34 -17 -4 -5 -15 -4 -29 3 -12 6 -24 9 -28 6 -8 -8 16 -31 53 -51
l30 -17 -35 6 c-19 4 -70 9 -113 13 -69 5 -77 4 -71 -11 4 -11 19 -16 53 -17
73 -1 95 -5 99 -17 2 -8 29 -12 73 -12 65 0 69 1 75 25 7 29 19 32 28 9 9 -23
0 -32 -42 -40 -54 -10 -62 -18 -22 -25 35 -6 35 -6 -10 -9 -40 -2 -42 -3 -15
-9 39 -8 47 -41 10 -41 -14 0 -24 4 -21 9 3 5 -1 12 -10 15 -12 4 -15 2 -10
-9 4 -10 -1 -15 -14 -15 -24 0 -25 8 -3 32 14 15 14 21 3 31 -10 9 -11 9 -6 0
7 -12 -6 -18 -28 -14 -15 3 -66 -21 -66 -30 0 -5 -8 -10 -17 -11 -10 0 4 -4
31 -7 29 -4 51 -12 54 -20 3 -8 0 -11 -6 -7 -6 3 -13 2 -17 -4 -9 -15 -96 -12
-129 5 -15 8 -44 15 -62 15 -27 0 -34 -4 -34 -20 0 -17 -7 -20 -45 -20 -25 0
-45 -5 -45 -10 0 -16 181 -9 187 6 3 9 14 7 37 -7 36 -21 99 -17 90 6 -6 14
27 25 55 18 22 -6 35 -29 20 -38 -5 -4 -8 -1 -7 6 2 6 -4 14 -12 17 -8 2 -11
1 -7 -4 4 -4 -3 -14 -15 -21 -22 -12 -22 -12 -3 -15 11 -1 -18 -4 -65 -7 -60
-4 -84 -10 -83 -18 3 -14 -7 -16 -31 -7 -21 8 -20 24 2 25 9 1 1 4 -18 8 -47
8 -102 2 -93 -12 6 -9 -85 -5 -142 7 -11 3 -22 5 -24 5 -2 1 2 7 8 15 10 11 8
16 -8 21 -10 3 -31 3 -45 -1 -30 -7 -79 3 -72 15 7 11 -59 12 -88 1 -18 -6
-28 -5 -36 5 -12 15 3 31 20 20 6 -3 7 1 4 9 -5 13 2 14 48 9 29 -3 67 -12 85
-20 22 -10 57 -14 112 -11 45 2 81 0 81 -4 0 -17 26 -6 35 15 7 15 20 23 45
25 49 5 63 22 20 23 -90 4 -112 3 -117 -3 -2 -5 3 -8 11 -8 9 0 16 -5 16 -11
0 -6 -7 -8 -17 -5 -9 4 -20 1 -24 -6 -7 -10 -11 -10 -21 0 -14 14 -32 16 -23
2 3 -5 1 -10 -4 -10 -6 0 -11 5 -11 10 0 6 -19 9 -42 9 -40 -1 -41 -2 -13 -9
28 -7 29 -8 5 -9 -15 0 -31 4 -36 9 -12 12 -218 32 -222 22 -5 -14 -92 -1 -92
14 0 9 11 14 29 14 16 0 34 7 41 15 7 8 17 12 22 9 6 -4 5 -10 -3 -15 -18 -11
-10 -16 26 -21 27 -3 30 0 31 27 0 24 4 29 20 27 17 -2 16 0 -5 16 -13 11 -20
22 -14 25 17 11 82 0 98 -17 20 -20 50 -17 50 4 0 9 11 16 27 18 19 2 25 8 21
18 -7 18 16 18 41 -1 22 -17 76 -20 76 -5 0 6 -10 10 -23 10 -12 0 -33 7 -46
17 -18 12 -28 13 -41 5 -10 -6 -27 -8 -39 -5 -15 4 -21 1 -21 -12 0 -11 -7
-15 -22 -13 -15 2 -23 10 -23 23 0 11 -4 26 -8 32 -6 10 -2 11 19 3 37 -15 89
-3 74 15 -9 10 -18 11 -36 4 -19 -7 -29 -5 -40 6 -9 8 -21 15 -29 15 -14 0
-15 24 -2 37 21 21 97 -6 97 -34 0 -9 13 -13 38 -12 24 1 29 3 14 6 -32 6 -22
28 14 29 50 2 55 4 49 14 -3 5 -27 8 -52 5 -32 -3 -50 1 -61 12 -14 14 -14 16
2 25 15 8 16 12 5 19 -8 5 -24 9 -36 9 -13 0 -23 5 -23 10 0 6 9 10 19 10 11
0 23 -4 26 -10 9 -15 42 -12 69 5 18 12 29 13 51 5 20 -8 38 -7 62 1 19 6 43
9 54 6 13 -4 19 -1 16 6 -2 8 -29 12 -71 12 -46 0 -69 4 -75 14 -6 9 -20 12
-47 7 -22 -3 -47 -6 -56 -7 -10 0 -18 -7 -18 -14 0 -9 -6 -12 -15 -9 -8 4 -22
1 -30 -6 -10 -8 -19 -9 -27 -3 -7 6 -47 10 -88 10 -41 0 -85 3 -97 7 -28 9
-31 30 -3 23 11 -3 20 -2 20 3 0 11 44 21 124 26 67 5 105 14 57 14 -14 0 -25
7 -28 20 -3 11 -14 20 -24 20 -10 0 -21 5 -24 11 -5 7 5 8 29 4 22 -5 42 -3
50 4 15 12 91 0 128 -20 24 -13 28 -11 22 6 -4 8 -14 15 -23 15 -9 0 -22 5
-29 12 -9 9 -12 9 -12 -1 0 -11 -3 -11 -16 0 -8 7 -13 21 -11 31 3 11 0 18 -9
18 -8 0 -14 -7 -14 -15 0 -19 -19 -19 -26 0 -5 13 -8 13 -21 0 -19 -20 -68
-19 -88 1 -9 10 -29 17 -45 18 -15 1 -26 5 -23 10 3 5 -6 7 -21 4 -14 -3 -29
-1 -32 3 -3 5 2 9 10 9 9 0 16 5 16 10 0 6 -9 10 -20 10 -11 0 -23 7 -26 15
-4 8 -11 15 -16 15 -6 0 -6 -5 1 -14 9 -11 6 -18 -14 -34 -15 -12 -33 -18 -41
-15 -8 3 -14 1 -14 -5 0 -5 21 -13 48 -17 26 -4 52 -11 59 -17 7 -5 21 -7 33
-3 22 7 30 -19 8 -29 -7 -3 6 -4 30 -1 33 4 42 2 42 -10 0 -10 -10 -15 -35
-15 -19 0 -35 -4 -35 -10 0 -5 9 -10 20 -10 11 0 20 -4 20 -10 0 -10 -14 -13
-75 -14 -21 -1 -30 -6 -30 -18 0 -9 -4 -20 -8 -25 -5 -4 -7 -1 -5 7 2 10 -10
16 -40 20 -24 4 -47 12 -51 19 -10 16 -63 11 -69 -7 -2 -7 2 -10 12 -6 9 3 16
1 16 -5 0 -6 9 -11 21 -11 11 0 17 -4 14 -10 -3 -5 -3 -11 2 -11 17 -3 69 -10
91 -12 12 -1 22 -5 22 -9 0 -7 -151 -12 -166 -5 -3 1 -10 -6 -15 -16 -7 -12
-17 -16 -30 -12 -21 7 -25 -5 -7 -23 9 -9 4 -11 -21 -7 -18 2 -36 6 -39 9 -3
3 -11 1 -17 -4 -9 -7 -16 -6 -25 4 -16 20 -4 36 26 36 13 0 24 4 24 10 0 14
-46 23 -91 17 -21 -3 -39 -1 -39 3 0 5 -2 14 -5 22 -3 7 6 18 22 26 36 16 46
15 39 -3 -4 -10 1 -15 15 -15 32 0 17 23 -29 45 -31 15 -39 24 -33 34 6 9 18
12 37 7 19 -5 24 -10 15 -15 -9 -6 -6 -10 11 -14 12 -4 29 -7 36 -7 18 0 14
18 -5 23 -38 10 59 6 107 -4 29 -6 68 -8 88 -3 l37 7 -35 10 c-19 5 -42 11
-50 14 -29 9 -230 11 -236 2 -3 -5 -16 -6 -28 -3 -14 3 -29 -1 -39 -10 -18
-18 -37 -21 -37 -6 0 6 -13 10 -30 10 -20 0 -30 5 -30 15 0 19 -5 19 -30 -2
-22 -19 -27 -37 -8 -31 17 6 47 -22 41 -38 -3 -8 2 -14 11 -14 9 0 16 8 17 18
0 12 3 10 10 -7 12 -30 -3 -50 -23 -33 -9 7 -19 7 -28 2 -12 -8 -11 -10 6 -10
12 0 27 -7 34 -15 7 -8 19 -15 26 -15 16 0 16 -2 8 -23 -3 -9 -13 -13 -25 -10
-10 3 -26 0 -33 -7 -11 -8 -20 -9 -36 0 -25 13 -60 4 -60 -16 0 -12 -3 -12
-14 -2 -8 7 -10 15 -5 16 5 2 9 7 9 12 0 4 -16 3 -35 -3 -31 -9 -37 -8 -50 9
-18 24 -18 31 0 38 9 3 15 0 15 -9 0 -9 10 -15 25 -15 14 0 25 5 25 10 0 6 -5
10 -11 10 -6 0 -9 7 -6 14 7 16 -9 23 -63 25 -19 1 -37 6 -40 12 -4 5 -15 6
-26 2 -17 -6 -17 -5 -5 10 12 15 11 17 -7 17 -22 0 -39 17 -28 28 4 3 19 7 34
8 15 1 35 5 45 9 20 8 24 -14 5 -33 -18 -18 6 -40 25 -24 8 7 35 15 61 18 25
4 46 10 46 15 0 5 -6 6 -14 3 -8 -3 -25 0 -37 6 -20 11 -21 13 -5 22 9 5 23 7
31 4 14 -5 29 20 19 35 -8 13 10 11 24 -3 9 -9 17 -8 37 2 35 19 31 30 -12 30
-24 0 -45 8 -60 22 -27 25 -29 38 -8 38 8 0 15 -6 15 -13 0 -9 12 -11 39 -9
26 3 48 -2 66 -14 37 -24 65 -25 65 -3 0 10 5 21 10 24 17 11 11 23 -15 29
-14 4 -25 12 -25 18 0 7 -7 2 -16 -10 -14 -20 -17 -21 -37 -7 -12 8 -32 15
-45 15 -13 0 -20 4 -17 10 3 6 -3 10 -14 10 -12 0 -21 -4 -21 -10 0 -21 -115
-2 -131 22 -7 10 -82 14 -97 4 -7 -4 -12 -3 -12 3 0 5 -12 12 -27 14 -16 3 0
4 34 2 68 -2 98 8 73 25 -8 6 -25 8 -37 5 -12 -3 -24 -1 -27 4 -8 12 20 22 41
14 13 -5 15 -2 10 11 -4 10 -7 22 -7 27 0 5 -15 9 -34 9 -36 0 -62 19 -29 21
49 3 58 5 60 14 2 6 -12 11 -30 11 -77 3 -82 4 -69 13 12 7 12 12 1 29 -20 32
0 48 42 33 66 -23 92 -9 39 21 -18 10 -30 13 -30 6 0 -6 -6 -6 -16 3 -12 10
-17 10 -23 0 -5 -8 -24 -11 -51 -9 -28 2 -44 -1 -47 -9 -3 -9 6 -13 26 -13 21
0 31 -5 31 -15 0 -11 -11 -15 -40 -15 -31 0 -40 4 -40 18 -1 14 -2 15 -9 2 -5
-8 -12 -25 -15 -37 -7 -20 -4 -23 23 -23 17 0 31 5 31 10 0 6 5 10 11 10 12 0
44 -29 38 -34 -2 -2 -38 -5 -80 -8 l-77 -3 2 58 c1 50 0 56 -11 40 -8 -9 -12
-22 -10 -28 19 -48 18 -55 -2 -55 -12 0 -21 -4 -21 -9 0 -13 60 -42 72 -35 5
3 17 3 26 -1 35 -15 66 -14 79 3 11 12 16 14 19 5 3 -7 23 -13 45 -13 21 0 39
-3 39 -7 0 -5 -40 -8 -89 -8 -49 0 -93 -4 -97 -8 -4 -4 1 -14 12 -23 19 -15
19 -15 -2 -11 -12 2 -32 -6 -50 -20 -20 -18 -22 -22 -7 -14 24 12 153 11 153
-1 0 -5 9 -8 20 -8 11 0 20 -5 20 -11 0 -7 -8 -9 -22 -4 -13 3 -30 8 -38 9 -9
1 -21 6 -29 10 -15 10 -32 -10 -24 -30 4 -10 -10 -12 -61 -8 -39 2 -66 0 -66
-5 0 -14 28 -21 102 -23 73 -3 83 -18 12 -18 -25 0 -44 -5 -44 -11 0 -7 -10
-9 -24 -5 -14 3 -27 2 -30 -2 -3 -5 -22 -7 -42 -5 -28 2 -49 -5 -81 -26 l-43
-29 29 -5 c17 -4 30 -14 34 -26 6 -25 20 -27 41 -6 8 8 25 15 38 14 l23 0 -25
-12 c-14 -6 -29 -17 -33 -24 -4 -7 -25 -13 -45 -13 -21 0 -42 -4 -48 -9 -5 -5
-22 -7 -37 -4 -21 4 -25 8 -15 14 10 7 10 9 -3 9 -12 0 -15 -9 -14 -34 1 -18
5 -38 9 -45 5 -8 -9 -11 -48 -11 -45 0 -54 3 -50 15 7 18 -9 19 -35 3 -15 -9
-25 -9 -43 0 l-23 11 22 7 c13 3 20 10 18 15 -3 4 -16 4 -29 -1 -16 -6 -30 -4
-43 5 -12 8 -30 11 -44 8 l-24 -7 24 -6 c48 -11 31 -25 -32 -26 -34 0 -75 -4
-92 -8 -19 -4 -25 -3 -17 2 11 7 10 10 -3 16 -9 3 -28 6 -41 6 -13 0 -24 5
-24 10 0 6 -5 10 -11 10 -5 0 -7 -5 -4 -10 3 -6 -4 -14 -17 -19 l-23 -10 25
-1 c63 -3 59 -17 -6 -19 -38 -1 -80 -2 -94 -2 -14 -1 -36 2 -50 6 l-25 7 25
-18 c13 -10 36 -17 51 -16 15 2 52 -4 82 -13 56 -16 120 -16 146 -1 9 6 17 3
24 -10 10 -18 10 -18 17 1 3 10 15 20 26 22 29 5 85 -7 79 -17 -9 -14 28 -29
58 -23 21 4 26 10 22 24 -4 12 -1 19 7 20 34 3 64 -4 74 -17 13 -17 63 -33 82
-27 6 3 12 11 12 19 0 10 -8 12 -31 7 -25 -5 -31 -3 -27 8 5 16 78 25 78 10 0
-6 9 -11 20 -11 11 0 20 -4 20 -10 0 -5 -11 -10 -25 -10 -14 0 -25 -4 -25 -10
0 -5 4 -10 8 -10 5 0 9 -7 9 -15 0 -8 -4 -15 -9 -15 -4 0 -8 -8 -8 -17 -1 -16
-2 -16 -13 -3 -7 8 -31 16 -54 18 -34 3 -44 0 -53 -17 -8 -16 -15 -19 -29 -12
-23 13 -50 8 -62 -10 -7 -11 -9 -11 -9 4 0 11 -8 17 -25 17 -16 0 -25 -6 -25
-15 0 -13 -7 -15 -37 -9 -21 4 -40 11 -42 17 -2 6 -6 5 -10 -1 -5 -9 -56 -16
-86 -13 -21 3 21 21 48 21 15 0 27 2 27 4 0 2 3 11 6 20 5 14 -4 16 -64 16
-39 0 -74 5 -77 10 -3 6 -12 10 -18 10 -7 0 -6 -4 3 -10 13 -8 13 -10 -2 -10
-9 0 -20 5 -24 11 -3 6 -18 9 -32 6 -17 -3 -30 1 -38 11 -11 15 -14 15 -31 1
-30 -26 -54 -32 -143 -38 l-86 -6 11 22 c9 20 17 23 80 23 53 1 66 3 52 11
-25 15 -179 17 -184 2 -3 -7 4 -10 19 -6 20 4 20 2 -7 -17 -16 -12 -22 -20
-13 -17 21 7 32 -19 11 -27 -9 -4 -31 -4 -49 0 -19 3 -34 2 -34 -3 0 -19 76
-35 169 -36 53 0 74 -2 48 -4 -55 -5 -61 -26 -9 -31 18 -2 32 -7 32 -13 0 -14
-134 -11 -148 3 -8 8 -12 9 -12 1 0 -14 -66 -37 -80 -28 -6 4 -20 -1 -30 -10
-12 -11 -20 -13 -25 -6 -3 6 -26 11 -51 11 -37 0 -44 3 -44 19 0 11 -4 23 -10
26 -5 3 -10 1 -10 -4 0 -6 -7 -11 -15 -11 -8 0 -15 2 -15 4 0 2 -3 12 -7 22
-5 15 -2 16 30 11 20 -3 61 -3 91 0 51 5 54 7 53 31 -2 24 -6 25 -70 29 -37 3
-80 1 -95 -5 -32 -11 -102 -4 -102 10 0 5 9 6 20 3 12 -4 27 -1 35 5 17 15 20
30 4 30 -5 0 -7 -5 -4 -11 5 -7 -8 -9 -37 -7 -36 2 -42 6 -40 22 3 16 0 17
-20 11 -13 -4 -35 -8 -51 -10 -15 -1 -30 -5 -34 -8 -11 -12 -46 -7 -63 8 -9 8
-32 15 -51 15 -66 1 -190 -8 -196 -14 -14 -14 -86 -5 -110 14 -14 11 -22 20
-17 21 5 0 65 1 134 1 69 0 128 4 131 9 3 6 34 1 70 -11 70 -22 128 -27 97 -9
-22 12 -24 33 -3 25 8 -3 15 -1 15 4 0 6 -4 10 -10 10 -5 0 -10 5 -10 11 0 7
-9 19 -19 29 -19 16 -19 17 12 35 l32 20 -65 10 -65 11 94 8 c87 8 93 10 70
22 -13 7 -36 11 -51 8 -14 -3 -29 -1 -32 4 -3 5 -17 7 -31 4 -18 -3 -25 0 -23
9 4 15 -72 32 -86 18 -6 -5 0 -9 15 -9 42 0 55 -16 18 -24 -24 -5 -38 -1 -53
12 -16 14 -30 17 -59 12 -20 -4 -40 -10 -44 -13 -9 -10 37 -47 58 -47 26 0 33
-18 9 -25 -36 -11 -11 -25 46 -25 33 0 54 4 54 11 0 8 4 8 14 0 7 -6 21 -9 30
-5 9 3 16 1 16 -5 0 -6 -17 -11 -37 -12 -149 -4 -193 -11 -193 -28 0 -4 15 -7
33 -8 93 -3 90 -2 77 -18 -11 -13 -36 -15 -139 -13 -114 3 -126 5 -136 23 -5
11 -22 33 -37 49 -15 15 -30 37 -33 47 -3 10 -21 24 -40 30 -31 12 -32 14 -19
34 10 15 11 30 4 54 -11 40 -4 62 18 54 15 -5 15 -4 1 8 -20 18 -54 129 -42
139 4 5 22 10 38 13 24 3 22 4 -12 6 l-41 1 -7 49 c-5 38 -12 51 -31 60 -38
17 -54 14 -54 -12 0 -42 -64 -80 -190 -116 -99 -28 -379 -136 -510 -198 -116
-55 -222 -113 -349 -192 -116 -72 -119 -73 -127 -59 -4 7 -3 8 4 4 7 -4 12 0
12 10 0 22 29 54 49 54 12 0 13 2 3 8 -22 15 143 170 241 227 48 27 85 51 83
53 -2 2 -17 -3 -33 -12 -28 -14 -29 -14 -28 6 1 18 35 54 80 86 77 55 189 152
191 165 1 4 2 10 3 15 1 4 6 0 11 -8 8 -12 10 -11 10 8 0 12 7 25 15 29 9 3
23 20 32 37 9 17 19 33 22 36 3 3 19 31 35 62 16 32 38 66 49 75 19 17 20 17
31 -1 23 -40 53 -63 104 -79 91 -30 150 0 245 126 27 36 38 45 36 30z m881 -4
c0 -7 15 -10 40 -7 22 2 42 -1 44 -7 3 -7 7 -6 13 1 4 6 24 14 45 17 30 4 37
2 41 -14 4 -16 0 -19 -31 -20 -28 0 -32 -2 -17 -8 32 -13 -63 -20 -218 -16
-142 3 -172 9 -121 21 16 4 34 11 40 15 20 16 82 19 87 5 7 -19 67 -27 67 -9
0 7 -7 13 -15 13 -8 0 -15 5 -15 10 0 6 9 10 20 10 11 0 20 -5 20 -11z m1190
-100 c192 -2 220 -5 220 -21 0 -12 -963 -4 -982 8 -10 7 552 24 572 17 3 -1
89 -3 190 -4z m1036 -909 c13 0 24 -4 24 -10 0 -5 -10 -9 -22 -7 -15 1 -23 -3
-23 -13 0 -11 13 -16 43 -18 23 -2 40 -7 37 -12 -3 -5 -12 -7 -20 -3 -8 3 -15
1 -15 -4 0 -16 24 -33 47 -33 13 0 23 -5 23 -10 0 -7 -14 -8 -37 -4 -46 8 -55
13 -48 25 4 5 -3 9 -14 9 -24 0 -29 -28 -8 -49 10 -10 0 -11 -52 -7 -75 7 -93
16 -33 16 23 0 42 5 42 10 0 6 -16 10 -35 10 -22 0 -44 8 -57 19 -19 18 -22
19 -44 4 -24 -15 -24 -15 -15 8 5 13 14 23 21 21 42 -10 132 -18 135 -12 2 4
0 21 -5 39 -5 17 -5 29 0 26 5 -3 12 0 16 7 6 9 9 9 12 0 2 -7 15 -12 28 -12z
m-1607 -146 c22 -5 30 -11 27 -20 -3 -8 1 -14 9 -14 9 0 12 6 9 15 -5 11 1 15
22 15 16 1 65 3 109 5 78 4 129 -7 95 -20 -8 -3 -42 -9 -75 -14 -33 -5 -52 -9
-42 -10 9 0 17 -5 17 -9 0 -5 -44 -7 -97 -5 -85 3 -100 6 -112 23 -8 12 -25
20 -43 20 -17 0 -27 4 -23 10 7 11 57 13 104 4z m-302 -45 c-9 -6 -15 -14 -12
-19 6 -10 -23 -22 -36 -14 -5 3 -17 0 -26 -5 -15 -8 -11 -10 20 -11 21 0 47 4
57 10 24 13 141 15 250 5 47 -4 97 -9 113 -10 15 -1 30 -4 35 -5 4 -1 12 -3
17 -5 6 -1 15 -3 20 -5 6 -1 21 -2 35 -3 22 0 22 0 3 -4 -14 -3 -20 -9 -16
-19 7 -19 -21 -18 -37 1 -15 18 -60 20 -60 3 0 -7 -7 -2 -16 11 -14 19 -18 21
-25 9 -6 -11 -23 -13 -66 -10 -32 2 -71 4 -86 3 -16 0 -25 4 -22 10 9 13 -101
6 -138 -10 -37 -15 -79 -14 -109 2 -30 15 -25 37 8 37 17 0 24 6 24 20 0 17 7
20 43 20 34 -1 38 -3 24 -11z m-2972 -10 c53 -1 63 -3 40 -9 -42 -11 -105 -39
-136 -61 -21 -15 -33 -17 -59 -9 -19 5 -37 15 -41 21 -4 7 -22 14 -40 16 -43
4 -59 20 -38 36 10 8 49 11 110 9 52 -1 126 -3 164 -3z m3669 -27 c3 -5 66 -8
141 -8 74 1 135 -2 135 -6 0 -5 -15 -8 -32 -8 -46 0 -66 -14 -42 -29 15 -8 4
-10 -51 -11 -82 0 -110 -11 -76 -30 13 -6 20 -17 18 -24 -3 -8 9 -18 29 -26
38 -15 43 -25 15 -33 -20 -5 -57 14 -79 42 -11 14 -14 14 -23 1 -8 -13 -11
-13 -22 1 -6 9 -30 21 -52 26 -32 9 -35 11 -14 12 63 2 89 13 89 36 0 19 4 21
33 18 24 -3 29 -2 17 6 -22 15 -46 13 -65 -5 -10 -10 -40 -18 -80 -21 -55 -4
-65 -2 -65 11 0 13 -6 15 -26 10 -20 -5 -25 -3 -22 7 6 18 45 24 72 11 39 -19
65 -21 59 -5 -8 21 29 44 41 25z m-1114 -87 c17 -9 31 -15 32 -14 2 1 25 -1
51 -5 34 -5 55 -3 70 6 26 16 170 12 165 -4 -2 -5 -39 -11 -82 -13 -43 -1 -83
-8 -89 -14 -13 -13 -83 -15 -91 -2 -6 10 -52 21 -111 27 l-40 5 32 -20 c18
-11 55 -23 83 -25 60 -6 78 -15 59 -27 -11 -7 -10 -9 4 -9 9 0 17 5 17 10 0 6
5 10 11 10 5 0 7 -4 4 -10 -3 -5 0 -10 7 -10 29 -1 -23 -21 -57 -22 -19 -1
-35 -5 -35 -11 0 -5 22 -6 53 -3 110 14 132 16 120 10 -7 -3 -13 -11 -13 -17
0 -9 -23 -11 -80 -9 -57 3 -80 1 -80 -8 0 -7 -6 -6 -16 4 -17 18 -84 22 -84 6
0 -5 18 -10 41 -10 24 0 38 -4 34 -10 -3 -5 -1 -10 4 -10 22 0 10 -16 -19 -27
-29 -11 -31 -10 -62 35 -21 31 -26 43 -15 39 12 -4 17 -1 18 11 0 10 3 12 6 5
3 -10 10 -10 25 -2 11 6 31 9 43 6 25 -4 54 8 43 18 -3 3 -46 9 -94 12 -101 6
-159 27 -159 58 0 17 8 20 48 23 37 2 47 0 41 -9 -5 -9 -1 -10 17 -6 13 4 34
7 47 7 13 0 20 4 17 10 -9 14 1 13 35 -5z m803 -4 c10 0 15 -6 12 -11 -7 -12
22 -26 33 -16 3 4 0 11 -8 16 -11 7 0 10 34 10 42 0 47 -2 36 -15 -11 -13 -10
-14 4 -9 18 7 19 4 10 -20 -3 -9 -11 -13 -17 -9 -5 3 -34 5 -63 4 -42 -1 -54
2 -54 13 0 22 -15 27 -49 15 -36 -13 -41 -26 -10 -25 23 1 38 -20 17 -22 -106
-14 -216 -15 -242 -3 -21 10 -37 11 -61 4 -35 -11 -82 -7 -91 8 -4 8 42 14 69
10 4 0 7 6 7 14 0 9 9 15 23 15 18 0 19 2 7 11 -11 8 -6 9 20 5 66 -10 221 -9
232 2 7 7 25 10 42 8 17 -2 39 -4 49 -5z m1617 -121 c39 0 55 -14 36 -32 -13
-14 -10 -16 32 -21 126 -14 218 -30 224 -40 3 -6 14 -11 25 -12 41 -4 109 -18
123 -25 9 -6 0 -10 -30 -15 -51 -7 -95 -1 -116 15 -7 7 -30 12 -51 12 -21 -1
-47 2 -58 6 -17 5 -16 7 10 13 26 6 24 7 -15 7 -25 0 -55 3 -67 7 -18 6 -23 3
-24 -11 -1 -17 -2 -17 -6 -1 -4 16 -36 23 -83 18 -13 -2 -13 -1 0 9 11 9 12
13 3 17 -7 2 -13 11 -13 18 0 8 -17 19 -37 24 -74 19 -78 20 -45 17 18 -1 35
1 39 7 3 5 10 4 16 -2 6 -6 22 -11 37 -11z m-1870 -1 c0 -7 11 -8 30 -4 25 6
29 4 24 -10 -6 -14 -15 -16 -45 -11 -20 3 -45 9 -55 13 -12 4 -15 3 -10 -5 4
-7 2 -12 -4 -12 -6 0 -8 -4 -5 -10 3 -5 34 -10 68 -10 37 0 57 -4 49 -9 -22
-14 -115 -4 -128 13 -7 10 -25 16 -45 15 l-34 -1 30 -8 c28 -7 29 -8 5 -10
-14 -1 -20 -4 -14 -6 7 -3 10 -13 7 -23 -4 -16 -14 -17 -91 -14 -48 2 -103 8
-122 14 -45 11 -70 12 -70 0 0 -5 8 -12 18 -15 9 -2 4 -4 -13 -3 -19 1 -29 7
-27 15 1 8 -1 11 -6 8 -11 -6 -38 11 -30 20 4 3 59 1 123 -6 116 -12 202 -6
160 11 -11 4 -33 8 -50 9 -22 2 -25 4 -10 7 11 3 22 9 25 13 14 21 220 39 220
19z m2476 -3 c8 -8 36 -18 62 -21 26 -3 65 -14 87 -24 l40 -19 -28 -11 c-27
-11 -161 -8 -262 5 -39 5 -45 9 -30 15 16 6 14 8 -12 8 -17 1 -34 -5 -37 -11
-5 -10 -7 -10 -12 -1 -3 7 -12 9 -20 6 -8 -3 -14 0 -14 6 0 6 -10 11 -22 11
-20 0 -21 2 -8 15 16 15 90 10 90 -6 0 -5 14 -9 30 -9 17 0 39 -6 50 -12 17
-11 22 -10 30 2 14 21 12 41 -2 39 -39 -5 -46 5 -8 11 25 4 46 8 48 8 2 1 10
-4 18 -12z m-2468 -91 c24 -9 47 -13 51 -11 4 3 51 -2 106 -9 54 -8 102 -12
107 -9 4 3 8 1 8 -4 0 -6 -10 -12 -22 -15 -28 -7 -194 -1 -207 7 -5 4 -12 2
-16 -4 -3 -5 2 -10 11 -10 10 0 15 -3 11 -6 -3 -3 -32 0 -64 7 -32 6 -65 11
-73 11 -43 -4 -156 -1 -177 4 -13 4 -23 2 -23 -4 0 -13 66 -36 80 -27 5 3 10
1 10 -5 0 -11 -137 -4 -200 11 -9 3 -14 -2 -12 -11 1 -10 -2 -9 -13 4 -8 11
-15 23 -15 28 0 4 -12 8 -27 8 -14 0 -23 3 -20 6 10 10 116 5 137 -6 13 -7 20
-6 23 3 3 9 49 12 183 12 98 -1 163 1 144 2 -54 5 -80 12 -80 23 0 14 28 12
78 -5z m-3413 -285 c22 -4 48 -11 59 -15 10 -4 34 -8 55 -9 l36 -1 0 -69 c0
-58 -3 -70 -17 -72 -10 -1 -18 2 -18 8 0 13 -42 6 -47 -8 -2 -7 14 -14 37 -18
40 -6 45 -12 34 -40 -5 -12 -20 -16 -68 -15 -33 0 -53 3 -44 7 37 15 -29 56
-71 45 -14 -4 -21 -1 -21 10 0 25 23 35 77 32 28 -1 55 0 60 4 12 9 15 41 3
41 -5 0 -10 7 -10 15 0 9 -9 15 -24 15 -42 0 -76 18 -76 40 0 13 -7 20 -19 20
-11 0 -27 3 -36 6 -24 9 2 24 29 17 12 -3 39 -8 61 -13z m-929 -404 c2 -20 -4
-26 -30 -32 -17 -3 -39 -13 -49 -22 -14 -13 -25 -13 -64 -5 -42 10 -48 9 -64
-10 -25 -30 -24 -35 14 -39 17 -2 30 -7 27 -13 -3 -5 -12 -8 -20 -6 -8 2 -61
6 -117 8 -75 3 -114 0 -148 -11 -84 -29 -295 -18 -295 16 0 4 -19 8 -42 8
l-43 1 28 15 c30 16 33 20 15 22 -7 0 -32 3 -55 7 -23 3 -44 2 -47 -3 -3 -5
-17 -7 -31 -5 -49 10 -14 21 74 22 84 2 91 0 103 -21 7 -13 11 -26 10 -30 -1
-5 5 -8 13 -8 8 0 12 6 9 13 -7 19 72 43 91 27 8 -7 19 -9 25 -5 16 10 60 -3
57 -18 -1 -6 5 -10 13 -8 26 6 74 12 100 12 14 1 28 6 32 12 6 9 10 8 17 -2
13 -21 65 0 69 28 3 21 7 22 68 17 64 -5 74 0 52 22 -9 9 -7 12 13 12 31 0 78
-46 54 -53 -11 -4 -11 -5 2 -3 11 1 18 10 19 23 1 13 -3 20 -9 16 -5 -3 -8 0
-5 8 3 8 25 16 54 20 27 3 51 7 54 7 3 1 6 -9 6 -22z m7104 -78 c13 8 22 7 37
-3 10 -7 36 -16 56 -20 20 -4 37 -11 37 -16 0 -14 -66 -10 -79 5 -12 15 -118
19 -127 5 -3 -5 7 -9 21 -9 15 0 24 -4 20 -10 -3 -5 -30 -10 -58 -11 -41 0
-47 -2 -29 -9 12 -5 22 -14 22 -20 0 -14 -35 -12 -95 4 -47 13 -48 14 -16 15
l34 1 -21 23 c-12 13 -22 26 -22 30 0 4 21 7 48 6 79 -2 86 -1 73 15 -20 24
10 26 48 3 26 -16 37 -18 51 -9z m-634 -130 c7 -5 16 -8 20 -7 5 1 16 0 24 -3
34 -13 144 -31 195 -32 30 0 55 -3 55 -7 0 -4 21 -12 47 -18 32 -8 43 -15 34
-21 -7 -4 -28 -4 -45 0 -58 16 -181 16 -172 1 3 -5 -1 -11 -9 -15 -8 -3 -17
-1 -20 4 -4 6 0 10 7 10 8 1 6 6 -6 15 -27 20 -36 19 -36 -5 0 -17 -5 -19 -37
-14 -41 6 -55 20 -48 44 4 11 -8 21 -40 34 -24 10 -42 23 -39 27 6 10 53 1 70
-13z m849 -261 c1 -7 7 -11 14 -9 9 2 12 -5 9 -23 -4 -20 -1 -25 16 -26 11 -1
35 -3 52 -4 25 -3 30 1 30 17 -1 31 30 47 50 26 16 -16 16 -17 -2 -12 -13 3
-22 -2 -29 -18 -6 -13 -24 -26 -45 -31 -42 -11 -140 -15 -134 -6 6 11 -82 28
-170 34 -53 3 -85 10 -95 20 -14 13 -12 15 14 16 48 2 79 -2 91 -12 6 -5 33
-12 59 -16 42 -5 48 -4 42 10 -7 19 17 24 28 7 12 -19 33 -10 45 20 12 29 24
32 25 7z m-1648 -734 c21 -53 42 -136 53 -208 20 -119 59 -338 66 -362 2 -9
15 -5 41 12 75 48 82 56 102 107 23 61 26 57 10 -10 -14 -58 -47 -103 -96
-133 -21 -12 -39 -23 -41 -24 -6 -5 28 -157 42 -183 9 -17 18 -49 21 -73 6
-40 3 -37 -29 37 -19 44 -40 108 -47 142 -7 34 -16 62 -19 62 -4 0 -19 -23
-34 -50 -26 -47 -85 -100 -113 -100 -7 0 -13 -4 -13 -8 0 -13 -34 -11 -42 2
-5 8 -8 7 -8 -1 0 -7 -4 -13 -10 -13 -5 0 -10 6 -10 13 0 8 19 20 43 27 66 20
128 69 143 115 3 11 14 29 24 40 15 17 17 27 10 60 -21 91 -50 257 -50 283 0
16 -3 31 -6 34 -3 4 -7 30 -9 60 -2 29 -19 95 -39 148 -34 90 -44 132 -29 117
4 -4 22 -47 40 -94z m1464 -188 c0 -5 -9 -11 -20 -13 -14 -2 -18 -8 -14 -19 4
-11 2 -14 -5 -9 -7 4 -12 5 -12 1 0 -15 52 -24 70 -12 17 10 25 9 47 -3 47
-27 40 -40 -21 -40 -44 0 -60 -4 -73 -20 -10 -11 -27 -20 -39 -20 -48 0 -31
-16 28 -25 45 -7 64 -15 66 -26 2 -13 -7 -18 -40 -21 -56 -6 -73 -1 -57 19 7
7 19 11 28 8 12 -5 13 -3 5 5 -12 12 -57 -1 -69 -19 -9 -15 -98 -14 -113 1 -9
9 -12 9 -12 -1 0 -8 -6 -11 -17 -6 -10 4 -26 8 -36 10 -9 2 -22 7 -27 10 -16
10 -11 42 8 50 16 7 15 8 -3 16 -12 5 29 7 103 6 115 -3 153 3 117 17 -8 3
-12 12 -9 20 6 16 -10 29 -41 33 -11 2 -33 7 -50 12 -25 8 -21 9 22 6 29 -2
55 0 58 6 4 5 19 9 35 9 16 0 32 5 35 11 8 12 36 8 36 -6z"/>
<path d="M7872 4454 c2 -12 -3 -19 -12 -19 -8 0 -21 -10 -28 -22 -14 -26 -32
-30 -32 -8 0 23 -17 18 -23 -6 -4 -16 -10 -20 -24 -14 -10 5 -47 10 -83 12
-73 5 -82 9 -57 28 16 11 16 13 1 19 -28 11 -48 7 -36 -7 6 -7 9 -34 7 -60 -1
-26 0 -47 4 -47 3 0 23 11 45 24 36 23 63 24 77 3 3 -5 34 -11 68 -14 47 -4
59 -9 51 -18 -6 -7 -22 -10 -37 -7 -18 3 -24 1 -19 -7 4 -6 18 -11 31 -11 13
0 36 -5 50 -12 22 -10 28 -9 35 2 6 10 4 17 -5 22 -7 5 -11 17 -8 27 3 13 -2
21 -16 26 -12 3 -21 11 -21 16 0 12 6 11 28 -2 14 -9 25 -8 50 5 l32 16 -21
21 c-11 11 -24 17 -30 13 -6 -3 -9 1 -7 11 2 10 -3 20 -10 23 -9 2 -12 -3 -10
-14z"/>
<path d="M6078 4316 c-20 -30 -26 -33 -63 -31 -22 1 -107 5 -190 9 -82 3 -173
9 -202 12 -31 3 -54 1 -58 -5 -4 -7 -12 -8 -23 -2 -9 5 -97 8 -195 8 -125 -1
-171 -4 -155 -11 13 -5 96 -10 185 -10 90 -1 158 -3 153 -4 -6 -2 -8 -7 -5
-12 5 -9 302 -4 343 5 26 6 29 -10 5 -24 -15 -9 -13 -10 12 -10 17 0 39 5 50
10 18 8 18 9 -4 5 -17 -4 -21 -2 -13 6 14 14 62 1 62 -17 0 -10 -10 -15 -27
-15 -26 0 -26 -1 -7 -15 17 -13 10 -14 -71 -9 -49 3 -103 5 -119 5 -16 0 -36
4 -43 10 -9 8 -13 8 -13 0 0 -6 -7 -11 -16 -11 -8 0 -22 -7 -31 -15 -14 -14
-13 -15 9 -10 13 3 43 2 66 -3 24 -6 39 -6 36 -1 -3 5 30 9 74 9 119 0 202 11
202 26 0 7 -8 15 -17 17 -16 4 -15 5 1 6 20 1 20 1 0 16 -17 13 -11 14 63 15
67 0 81 3 77 14 -4 11 0 13 14 9 28 -7 37 14 11 28 -18 9 -24 8 -31 -5 -10
-18 -53 -22 -63 -6 -3 6 5 10 19 10 29 0 43 15 20 24 -27 10 -33 7 -56 -28z"/>
<path d="M4973 4164 c-5 -13 -8 -13 -15 -2 -6 9 -7 5 -3 -12 11 -41 33 -50
119 -51 45 0 97 -3 116 -6 19 -3 55 -5 80 -5 30 0 39 -2 25 -7 -16 -6 -11 -11
28 -24 42 -14 48 -14 62 -1 18 18 10 38 -12 30 -11 -5 -13 -2 -9 10 9 22 -21
54 -51 54 -26 0 -29 -9 -10 -29 10 -11 9 -13 -6 -7 -10 3 -23 6 -28 6 -4 0 -6
7 -2 16 4 11 2 15 -6 13 -7 -3 -12 -9 -12 -14 0 -14 -41 -28 -48 -16 -3 5 -32
9 -65 10 -40 0 -64 6 -77 17 -14 13 -22 14 -32 5 -16 -13 -28 -5 -20 15 3 8
-1 14 -11 14 -9 0 -19 -7 -23 -16z"/>
</g>
</svg>
